STARTFONT 2.1
FONT -FontForge-ITC Benguiat Gothic Std-Medium-R-Normal--48-460-75-75-P-249-ISO8859-1
SIZE 46 75 75
FONTBOUNDINGBOX 56 56 -8 -12
COMMENT "Generated by fontforge, http://fontforge.sourceforge.net"
COMMENT "Copyright 1990, 1995 , 2002Adobe Systems Incorporated. All Rights Reserved. ITC Benguiat Gothic is a registered trademark of International Typeface Corporation."
STARTPROPERTIES 40
FOUNDRY "FontForge"
FAMILY_NAME "ITC Benguiat Gothic Std"
WEIGHT_NAME "Medium"
SLANT "R"
SETWIDTH_NAME "Normal"
ADD_STYLE_NAME ""
PIXEL_SIZE 48
POINT_SIZE 460
RESOLUTION_X 75
RESOLUTION_Y 75
SPACING "P"
AVERAGE_WIDTH 249
CHARSET_REGISTRY "ISO8859"
CHARSET_ENCODING "1"
FONTNAME_REGISTRY ""
CHARSET_COLLECTIONS "ISOLatin1Encoding"
FONT_NAME "BenguiatGothicStd-Medium"
FACE_NAME "ITC Benguiat Gothic Std Medium"
COPYRIGHT "Copyright 1990, 1995 , 2002Adobe Systems Incorporated. All Rights Reserved. ITC Benguiat Gothic is a registered trademark of International Typeface Corporation."
FONT_VERSION "001.001"
FONT_ASCENT 33
FONT_DESCENT 15
UNDERLINE_POSITION -5
UNDERLINE_THICKNESS 3
X_HEIGHT 23
CAP_HEIGHT 32
RAW_ASCENT 691
RAW_DESCENT 309
NORM_SPACE 15
RELATIVE_WEIGHT 50
RELATIVE_SETWIDTH 50
SUPERSCRIPT_X 0
SUPERSCRIPT_Y 16
SUPERSCRIPT_SIZE 28
SUBSCRIPT_X 0
SUBSCRIPT_Y 3
SUBSCRIPT_SIZE 28
FIGURE_WIDTH 29
AVG_LOWERCASE_WIDTH 240
AVG_UPPERCASE_WIDTH 289
ENDPROPERTIES
CHARS 253
STARTCHAR space
ENCODING 32
SWIDTH 305 0
DWIDTH 15 0
BBX 1 1 0 0
BITMAP
00
ENDCHAR
STARTCHAR exclam
ENCODING 33
SWIDTH 278 0
DWIDTH 13 0
BBX 5 33 4 0
BITMAP
70
F8
F8
F8
F8
F8
F8
F8
F8
F8
F8
F8
F8
78
78
78
78
78
78
78
78
70
70
70
00
00
00
00
70
F8
F8
F8
70
ENDCHAR
STARTCHAR quotedbl
ENCODING 34
SWIDTH 333 0
DWIDTH 16 0
BBX 10 13 3 20
BITMAP
E1C0
E1C0
F3C0
F3C0
F3C0
F3C0
F3C0
F3C0
F3C0
F3C0
F3C0
E1C0
4180
ENDCHAR
STARTCHAR numbersign
ENCODING 35
SWIDTH 611 0
DWIDTH 29 0
BBX 23 33 3 0
BITMAP
00E070
00E070
00E070
01E070
01E0F0
01E0F0
01C0F0
01C0E0
01C0E0
01C0E0
7FFFFE
7FFFFE
7FFFFE
0381E0
0381C0
0381C0
0381C0
0781C0
0783C0
0783C0
FFFFFC
FFFFFC
FFFFFC
070380
0F0380
0F0780
0F0780
0E0780
0E0700
0E0700
0E0700
1E0700
1E0F00
ENDCHAR
STARTCHAR dollar
ENCODING 36
SWIDTH 611 0
DWIDTH 29 0
BBX 22 39 2 -3
BITMAP
007000
00F000
00F000
00F000
00F000
00F000
0FFFC0
3FFFE0
7FFFE0
7FFF80
780000
780000
780000
7FC000
3FFE00
1FFFE0
03FFF0
00F7F8
00F0F8
00F07C
00F03C
00F03C
00F03C
00F03C
00F03C
00F07C
00F078
00F0F8
00F3F0
7FFFF0
FFFFC0
FFFF80
7FFC00
00F000
00F000
00F000
00F000
00F000
007000
ENDCHAR
STARTCHAR percent
ENCODING 37
SWIDTH 833 0
DWIDTH 40 0
BBX 34 33 3 0
BITMAP
07C0018000
1FF003C000
3FF803C000
7FFC078000
F83C078000
F01E0F0000
E01E0F0000
E01E1E0000
E01E1E0000
E01E3C0000
F01E3C0000
F03C780000
787C780000
7FF8F00000
3FF0F00000
0FE0E00000
0001E00000
0001C0F800
0003C3FE00
000387FF00
00078FFF80
00070F07C0
000F1E03C0
000E1E03C0
001E1E01C0
001C1E01C0
003C1E03C0
00381E03C0
00780F07C0
00780FDF80
00F007FF00
00F003FE00
00E000F800
ENDCHAR
STARTCHAR ampersand
ENCODING 38
SWIDTH 778 0
DWIDTH 37 0
BBX 33 33 3 0
BITMAP
007E000000
01FF800000
03FFC00000
07FFE00000
0FC3F00000
0F80F00000
0F00F00000
0F00F04000
0F00F0E000
0F00F0E000
0F80F0F000
07C1F0F000
0FE3E0F000
1FF7C0F000
3FFF80F000
3EFF00F000
7C3F007000
F81F80F000
F00FC0F000
F007F0F000
F001F8F000
F000FDE000
F0007FE000
F0001FE000
F8000FC000
F80007E000
7C001FF800
7E003FFC00
3F80FE7E00
1FFFFC3F00
0FFFF81F80
03FFE00F80
007F000380
ENDCHAR
STARTCHAR quotesingle
ENCODING 39
SWIDTH 222 0
DWIDTH 11 0
BBX 4 13 3 20
BITMAP
70
F0
F0
F0
F0
F0
F0
F0
F0
F0
F0
70
60
ENDCHAR
STARTCHAR parenleft
ENCODING 40
SWIDTH 389 0
DWIDTH 19 0
BBX 13 44 3 -9
BITMAP
0038
00F8
00F0
01F0
03E0
07C0
0780
0F80
0F00
1E00
1E00
3E00
3C00
3C00
7C00
7800
7800
7800
7800
F800
F800
F800
F800
F800
F800
7800
7800
7800
7800
7C00
3C00
3C00
3E00
1E00
1E00
0F00
0F80
0780
07C0
03E0
01F0
00F0
0078
0030
ENDCHAR
STARTCHAR parenright
ENCODING 41
SWIDTH 389 0
DWIDTH 19 0
BBX 12 44 3 -9
BITMAP
E000
F000
F800
7C00
3E00
1E00
1F00
0F80
0780
0780
03C0
03C0
01E0
01E0
01E0
01F0
00F0
00F0
00F0
00F0
00F0
00F0
00F0
00F0
00F0
00F0
00F0
00F0
01E0
01E0
01E0
03E0
03C0
03C0
0780
0780
0F00
1F00
1E00
3E00
7C00
F800
F000
E000
ENDCHAR
STARTCHAR asterisk
ENCODING 42
SWIDTH 333 0
DWIDTH 16 0
BBX 12 14 2 19
BITMAP
0600
0600
0600
C670
F6F0
FFF0
3FC0
3FC0
FFE0
F6F0
E670
0600
0600
0600
ENDCHAR
STARTCHAR plus
ENCODING 43
SWIDTH 600 0
DWIDTH 29 0
BBX 25 24 2 0
BITMAP
003C0000
003C0000
003C0000
003C0000
003C0000
003C0000
003C0000
003C0000
003C0000
003C0000
FFFFFF80
FFFFFF80
FFFFFF80
FFFFFF80
003C0000
003C0000
003C0000
003C0000
003C0000
003C0000
003C0000
003C0000
003C0000
003C0000
ENDCHAR
STARTCHAR comma
ENCODING 44
SWIDTH 305 0
DWIDTH 15 0
BBX 8 13 2 -6
BITMAP
0E
0F
1F
1F
1E
3E
3C
3C
78
78
F0
F0
60
ENDCHAR
STARTCHAR hyphen
ENCODING 45
SWIDTH 333 0
DWIDTH 16 0
BBX 12 4 2 10
BITMAP
7FE0
FFF0
FFF0
3FC0
ENDCHAR
STARTCHAR period
ENCODING 46
SWIDTH 305 0
DWIDTH 15 0
BBX 5 5 5 0
BITMAP
70
F8
F8
F0
70
ENDCHAR
STARTCHAR slash
ENCODING 47
SWIDTH 278 0
DWIDTH 13 0
BBX 17 33 -2 0
BITMAP
000300
000780
000780
000F00
000F00
001F00
001E00
001E00
003C00
003C00
007800
007800
00F000
00F000
01F000
01E000
01E000
03C000
03C000
078000
078000
0F8000
0F0000
0F0000
1E0000
1E0000
3C0000
3C0000
7C0000
780000
780000
F00000
700000
ENDCHAR
STARTCHAR zero
ENCODING 48
SWIDTH 611 0
DWIDTH 29 0
BBX 25 33 2 0
BITMAP
003F0000
01FFC000
03FFE000
07FFF000
0FC1F800
1F807C00
1E003E00
3E001E00
7C001F00
7C000F00
78000F80
F8000F80
F8000780
F0000780
F0000780
F0000780
F0000780
F0000780
F0000780
F0000780
F8000780
F8000F80
78000F80
78000F00
7C001F00
3E001E00
1E003E00
1F007C00
0FC1F800
07FFF000
03FFE000
01FFC000
003F0000
ENDCHAR
STARTCHAR one
ENCODING 49
SWIDTH 611 0
DWIDTH 29 0
BBX 17 33 7 0
BITMAP
01C000
0FE000
FFE000
FFE000
FFE000
03E000
03E000
03E000
03E000
03E000
03E000
03E000
03E000
03E000
03E000
03E000
03E000
03E000
03E000
03E000
03E000
03E000
03E000
03E000
03E000
03E000
03E000
03E000
03E000
7FFF00
FFFF80
FFFF80
7FFF80
ENDCHAR
STARTCHAR two
ENCODING 50
SWIDTH 611 0
DWIDTH 29 0
BBX 23 33 3 0
BITMAP
7FFF00
7FFFC0
7FFFE0
3FFFF0
0001F8
0000F8
000078
000078
00007C
000078
000078
0000F8
0001F8
0003F0
0007E0
001FC0
007F80
00FF00
03FC00
07F800
1FE000
3F8000
3F0000
7E0000
7C0000
F80000
F80000
F80000
F00000
FFFFFC
FFFFFE
FFFFFE
7FFFFC
ENDCHAR
STARTCHAR three
ENCODING 51
SWIDTH 611 0
DWIDTH 29 0
BBX 23 33 3 0
BITMAP
7FFFE0
FFFFF0
FFFFF0
7FFFE0
000FC0
003F80
007E00
00FC00
03F000
07E000
0FFC00
1FFF80
1FFFE0
03FFF0
0003F8
0000F8
00007C
00003C
00003E
00003E
00001E
00001E
00001E
00001E
00003E
00003C
00007C
0000FC
0003F8
7FFFF0
FFFFE0
FFFF80
FFFE00
ENDCHAR
STARTCHAR four
ENCODING 52
SWIDTH 611 0
DWIDTH 29 0
BBX 25 33 2 0
BITMAP
0001E000
0007F000
000FF000
001FF000
007FF000
00FEF000
01F8F000
01F0F000
03E0F000
07C0F000
0F80F000
0F00F000
1F00F000
1E00F000
3E00F000
3C00F000
7C00F000
7800F000
7800F000
F800F000
F800F000
FFFFFF00
FFFFFF80
FFFFFF80
7FFFFF80
0000F000
0000F000
0000F000
0000F000
0000F000
0000F000
0000F000
00006000
ENDCHAR
STARTCHAR five
ENCODING 53
SWIDTH 611 0
DWIDTH 29 0
BBX 24 33 3 0
BITMAP
1FFFF0
3FFFF0
3FFFF0
3FFFF0
3C0000
7C0000
7C0000
7C0000
7FF000
7FFF00
7FFFC0
7FFFF0
003FF8
0003F8
0000FC
00007E
00003E
00001E
00001F
00001F
00000F
00000F
00001F
00001F
00001F
00003E
00003E
0000FC
0003FC
FFFFF8
FFFFF0
FFFFC0
FFFF00
ENDCHAR
STARTCHAR six
ENCODING 54
SWIDTH 611 0
DWIDTH 29 0
BBX 26 33 2 0
BITMAP
003FFE00
01FFFF00
03FFFF00
0FFFFE00
0FE00000
1F800000
3F000000
3E000000
7C000000
7C000000
781FC000
78FFF000
F9FFFC00
FBFFFE00
F7C0FF00
FF803F00
FE001F80
FE000F80
FC000780
FC0007C0
FC0007C0
FC0007C0
FC0007C0
7C0007C0
7C000780
7E000F80
3E001F80
1F803F00
1FC07E00
0FFFFC00
07FFF800
01FFE000
007F8000
ENDCHAR
STARTCHAR seven
ENCODING 55
SWIDTH 611 0
DWIDTH 29 0
BBX 20 33 4 0
BITMAP
FFFFF0
FFFFF0
FFFFF0
3FFFF0
0000F0
0000F0
0000F0
0001F0
0001E0
0003E0
0003C0
0007C0
000F80
000F80
001F00
001E00
003E00
007C00
00F800
00F800
01F000
01F000
03E000
03C000
07C000
07C000
078000
0F8000
0F8000
0F8000
0F8000
0F0000
070000
ENDCHAR
STARTCHAR eight
ENCODING 56
SWIDTH 611 0
DWIDTH 29 0
BBX 25 33 2 0
BITMAP
007F0000
03FFE000
07FFF000
0FFFF800
1F80FC00
3E003E00
3E003E00
3C001E00
3C001E00
3C003E00
3E003E00
1F007C00
1FC1FC00
0FFFF800
03FFE000
0FFFF800
1FFFFC00
3F007E00
7E001F00
7C000F00
F8000F80
F8000F80
F8000780
F8000780
F8000F80
78000F80
7C000F00
7E001F00
3F007E00
1FFFFC00
0FFFF800
03FFF000
00FF8000
ENDCHAR
STARTCHAR nine
ENCODING 57
SWIDTH 611 0
DWIDTH 29 0
BBX 25 33 2 0
BITMAP
00FF0000
03FFC000
0FFFF000
1FFFF800
3F81FC00
7E007E00
7C003E00
F8001F00
F8001F00
F0001F80
F0000F80
F0000F80
F0000F80
F0001F80
F8001F80
F8001F80
FC003F80
7E007F80
3F81F780
1FFFE780
0FFFCF80
07FF8F80
00FE0F80
00000F00
00001F00
00001E00
00003E00
00007C00
0001FC00
3FFFF800
7FFFF000
7FFFC000
3FFF0000
ENDCHAR
STARTCHAR colon
ENCODING 58
SWIDTH 305 0
DWIDTH 15 0
BBX 5 20 5 0
BITMAP
70
F0
F8
F8
70
00
00
00
00
00
00
00
00
00
00
70
F8
F8
F0
70
ENDCHAR
STARTCHAR semicolon
ENCODING 59
SWIDTH 305 0
DWIDTH 15 0
BBX 8 25 2 -5
BITMAP
0E
1F
1F
1F
0E
00
00
00
00
00
00
00
00
0E
1E
1E
3E
3E
3C
7C
78
78
F0
F0
E0
ENDCHAR
STARTCHAR less
ENCODING 60
SWIDTH 600 0
DWIDTH 29 0
BBX 25 24 2 0
BITMAP
00000180
00000780
00001F80
0000FF80
0003FE00
000FF800
007FC000
01FF0000
07FC0000
3FE00000
FF800000
FC000000
FC000000
FF800000
3FE00000
07F80000
01FF0000
007FC000
000FF800
0003FE00
0000FF80
00001F80
00000780
00000180
ENDCHAR
STARTCHAR equal
ENCODING 61
SWIDTH 600 0
DWIDTH 29 0
BBX 25 14 2 5
BITMAP
FFFFFF80
FFFFFF80
FFFFFF80
FFFFFF80
00000000
00000000
00000000
00000000
00000000
00000000
FFFFFF80
FFFFFF80
FFFFFF80
FFFFFF80
ENDCHAR
STARTCHAR greater
ENCODING 62
SWIDTH 600 0
DWIDTH 29 0
BBX 25 24 2 0
BITMAP
80000000
F0000000
FC000000
FF000000
3FE00000
0FF80000
03FF0000
007FC000
001FF000
0003FE00
0000FF80
00003F80
00003F80
0000FF80
0003FE00
001FF000
007FC000
03FF0000
0FF80000
3FE00000
FF000000
FC000000
F0000000
80000000
ENDCHAR
STARTCHAR question
ENCODING 63
SWIDTH 500 0
DWIDTH 24 0
BBX 20 33 1 0
BITMAP
7FFE00
FFFF80
FFFFC0
7FFFE0
0003F0
0001F0
0000F0
0000F0
0000F0
0000F0
0001F0
0001F0
0003E0
000FE0
001FC0
003F80
007E00
00FC00
01F800
03F000
03E000
03C000
03C000
03C000
018000
000000
000000
000000
038000
07C000
07C000
07C000
038000
ENDCHAR
STARTCHAR at
ENCODING 64
SWIDTH 800 0
DWIDTH 38 0
BBX 34 33 2 0
BITMAP
0003FC0000
001FFF8000
007FFFE000
01FC03F800
03F0007C00
07C0003E00
0F00001F00
1E00600F00
1E07F8E780
3C0FFCE380
381FFFE3C0
783F0FC3C0
787C07C1C0
707803C1C0
70F803C1C0
F0F00381C0
F0F00383C0
F0F0078380
F1E0070380
71E00F0780
79F00F0700
78F01F0E00
38F87F3C00
3C7FFFF800
1E7FEFF000
1E1FC7C700
0F06000F00
07C0001E00
03F0007C00
01FE03F800
007FFFE000
001FFF8000
0003FC0000
ENDCHAR
STARTCHAR A
ENCODING 65
SWIDTH 667 0
DWIDTH 32 0
BBX 28 33 2 0
BITMAP
000E0000
001F0000
003F8000
007FC000
007FE000
00FBE000
01F1F000
01F0F000
03E0F800
03E07800
07C07C00
07C03C00
0F803E00
0F801E00
0FF01F00
1FFE0F00
1FFF8F80
1FFFE780
3E07F780
3C00FFC0
3C003FC0
7C001FC0
78000FE0
780007E0
780003E0
F80003E0
F00001F0
F00001F0
F00001F0
F00000F0
F00000F0
F00000F0
E0000070
ENDCHAR
STARTCHAR B
ENCODING 66
SWIDTH 611 0
DWIDTH 29 0
BBX 25 33 3 0
BITMAP
7FFFE000
FFFFF800
FFFFFC00
FFFFFC00
F8007E00
F8003E00
F8003E00
F8001E00
F8003E00
FF803C00
FFF87C00
FFFFF800
FFFFF800
F87FF000
F807F800
F801FC00
F8007C00
F8003E00
F8001F00
F8001F00
F8000F80
F8000F80
F8000F80
F8000F80
F8000F80
F8000F80
F8000F80
F8001F00
F8007F00
FFFFFE00
FFFFFC00
7FFFF800
7FFFE000
ENDCHAR
STARTCHAR C
ENCODING 67
SWIDTH 611 0
DWIDTH 29 0
BBX 26 33 2 0
BITMAP
007FFF00
03FFFF80
07FFFF80
0FFFFF00
1FC00000
3F000000
7E000000
7C000000
7C000000
F8000000
F8000000
F8000000
F8000000
F8000000
F8000000
F8000000
F8000000
F8000000
7C000000
7C000000
7C000000
3E000000
3F000000
1F800000
0FC00000
0FE00000
07F80000
03FE0000
00FFC000
007FFFC0
001FFFC0
0007FFC0
0000FF80
ENDCHAR
STARTCHAR D
ENCODING 68
SWIDTH 667 0
DWIDTH 32 0
BBX 27 33 3 0
BITMAP
7FC00000
7FFC0000
FFFF0000
FFFFC000
F87FE000
F80FF800
F801FC00
F800FE00
F8007E00
F8001F00
F8001F80
F8000F80
F80007C0
F80007C0
F80003C0
F80003E0
F80003E0
F80003E0
F80003E0
F80003E0
F80003E0
F80003E0
F80003E0
F80003E0
F80003C0
F80007C0
F8000FC0
F8001F80
F8007F00
FFFFFE00
FFFFFC00
FFFFF800
7FFFC000
ENDCHAR
STARTCHAR E
ENCODING 69
SWIDTH 556 0
DWIDTH 27 0
BBX 21 33 4 0
BITMAP
FFFFF0
FFFFF8
FFFFF8
FFFFF0
F00000
F00000
F00000
F00000
F00000
FFFFF0
FFFFF0
FFFFF0
FFFFF0
F00000
F00000
F00000
F00000
F00000
F00000
F00000
F00000
F00000
F00000
F00000
F00000
F00000
F00000
F00000
F00000
FFFFF0
FFFFF8
FFFFF8
FFFFF0
ENDCHAR
STARTCHAR F
ENCODING 70
SWIDTH 500 0
DWIDTH 24 0
BBX 20 33 4 0
BITMAP
FFFFE0
FFFFF0
FFFFF0
FFFFE0
F00000
F00000
F00000
F00000
F00000
FFFFC0
FFFFE0
FFFFE0
FFFFC0
F00000
F00000
F00000
F00000
F00000
F00000
F00000
F00000
F00000
F00000
F00000
F00000
F00000
F00000
F00000
F00000
F00000
F00000
F00000
E00000
ENDCHAR
STARTCHAR G
ENCODING 71
SWIDTH 667 0
DWIDTH 32 0
BBX 27 33 2 0
BITMAP
007FFFC0
03FFFFC0
07FFFFC0
1FFFFFC0
1FC00000
3F000000
7E000000
7C000000
FC000000
F803FFC0
F807FFE0
F807FFE0
F003FFE0
F00001E0
F00001E0
F00001E0
F80001E0
F80001E0
F80001E0
F80001E0
7C0001E0
7C0001E0
3E0001E0
3F0001E0
1F8001E0
0FC001E0
07F001E0
03FC01E0
01FFC1E0
007FFFE0
003FFFE0
0007FFE0
00007FC0
ENDCHAR
STARTCHAR H
ENCODING 72
SWIDTH 611 0
DWIDTH 29 0
BBX 22 33 4 0
BITMAP
E00038
F0003C
F0007C
F0007C
F0007C
F0007C
F0007C
F0007C
F0007C
FFFFFC
FFFFFC
FFFFFC
FFFFFC
F0007C
F0007C
F0007C
F0007C
F0007C
F0007C
F0007C
F0007C
F0007C
F0007C
F0007C
F0007C
F0007C
F0007C
F0007C
F0007C
F0007C
F0007C
F0003C
E00038
ENDCHAR
STARTCHAR I
ENCODING 73
SWIDTH 222 0
DWIDTH 11 0
BBX 4 33 3 0
BITMAP
70
F0
F0
F0
F0
F0
F0
F0
F0
F0
F0
F0
F0
F0
F0
F0
F0
F0
F0
F0
F0
F0
F0
F0
F0
F0
F0
F0
F0
F0
F0
F0
70
ENDCHAR
STARTCHAR J
ENCODING 74
SWIDTH 444 0
DWIDTH 21 0
BBX 19 33 -1 0
BITMAP
0001C0
0001E0
0003E0
0003E0
0003E0
0003E0
0003E0
0003E0
0003E0
0003E0
0003E0
0003E0
0003E0
0003E0
0003E0
0003E0
0003E0
0003E0
0003E0
0003E0
0003E0
0003E0
0003E0
0003E0
0003E0
0003E0
0007C0
E00FC0
FC3F80
FFFF80
FFFF00
7FFC00
0FF000
ENDCHAR
STARTCHAR K
ENCODING 75
SWIDTH 611 0
DWIDTH 29 0
BBX 24 33 4 0
BITMAP
E00038
F0003C
F0007C
F0007C
F000F8
F000F8
F001F0
F003E0
FC0FC0
FFFF80
FFFF00
FFFC00
F1FF00
F03F80
F01FC0
F007C0
F003E0
F001F0
F001F0
F000F8
F00078
F0007C
F0003C
F0003E
F0003E
F0001E
F0001F
F0001F
F0001F
F0000F
F0000F
F0000F
E00006
ENDCHAR
STARTCHAR L
ENCODING 76
SWIDTH 444 0
DWIDTH 21 0
BBX 17 33 4 0
BITMAP
600000
F00000
F00000
F00000
F00000
F00000
F00000
F00000
F00000
F00000
F00000
F00000
F00000
F00000
F00000
F00000
F00000
F00000
F00000
F00000
F00000
F00000
F00000
F00000
F00000
F00000
F00000
F00000
F00000
FFFF80
FFFF80
FFFF80
FFFF80
ENDCHAR
STARTCHAR M
ENCODING 77
SWIDTH 722 0
DWIDTH 35 0
BBX 29 33 3 0
BITMAP
0E000300
1F000780
1F000FC0
1F800FC0
3F801FC0
3FC01FC0
3FC03FE0
3FE03DE0
3DE07DE0
39F079E0
78F0F9E0
78F8F1E0
787DF0E0
787FE0E0
783FE0F0
781FC0F0
781F80F0
780F00F0
780200F0
700000F0
700000F0
F00000F0
F00000F0
F00000F0
F00000F0
F00000F0
F00000F0
F00000F8
F00000F8
F00000F8
F00000F8
F00000F0
70000070
ENDCHAR
STARTCHAR N
ENCODING 78
SWIDTH 611 0
DWIDTH 29 0
BBX 23 33 3 0
BITMAP
70001C
FC001E
FE001E
FE001E
FF001E
FF801E
FFC01E
FBF01E
F9F81E
F8FE1E
F87FFE
F83FFE
F80FFE
F801FE
F8001E
F8001E
F8001E
F8001E
F8001E
F8001E
F8001E
F8001E
F8001E
F8001E
F8001E
F8001E
F8001E
F8001E
F8001E
F8001E
F8001E
F0001E
70001C
ENDCHAR
STARTCHAR O
ENCODING 79
SWIDTH 722 0
DWIDTH 35 0
BBX 31 33 2 0
BITMAP
001FE000
007FFC00
01FFFE00
03FFFF80
07F03FC0
0FC007E0
1F8003E0
3F0001F0
3E0000F8
7C0000F8
7C00007C
7C00007C
F800007C
F800003C
F800003E
F800003E
F800003E
F800003E
F800003E
F800003C
F800007C
7C00007C
7C00007C
7C0000F8
3E0000F8
3F0001F0
1F8003F0
0FC007E0
07F01FC0
03FFFF80
01FFFF00
007FFC00
000FE000
ENDCHAR
STARTCHAR P
ENCODING 80
SWIDTH 556 0
DWIDTH 27 0
BBX 23 33 4 0
BITMAP
FFFFE0
FFFFF8
FFFFFC
FFFFFC
F0007C
F0003E
F0003E
F0003C
F0007C
F000FC
F003F8
F00FF0
F07FE0
F3FF80
FFFE00
FFF800
FFC000
FE0000
F00000
F00000
F00000
F00000
F00000
F00000
F00000
F00000
F00000
F00000
F00000
F00000
F00000
F00000
E00000
ENDCHAR
STARTCHAR Q
ENCODING 81
SWIDTH 722 0
DWIDTH 35 0
BBX 31 38 2 -5
BITMAP
000FE000
007FFC00
01FFFE00
03FFFF80
07F03FC0
0FC007E0
1F8003E0
3F0001F0
3E0000F8
7C0000F8
7C00007C
7C00007C
F800007C
F800003C
F800003E
F800003E
F800003E
F800003E
F800003E
F800003C
F800007C
787E007C
7CFF807C
7CFFC0F8
3EFFE0F8
3F03E1F0
1F01F3F0
0FC0FFE0
0FF07FC0
03FFFF80
01FFFE00
007FFE00
001FFF00
00000FC0
00000FFE
000007FE
000003FE
0000007C
ENDCHAR
STARTCHAR R
ENCODING 82
SWIDTH 667 0
DWIDTH 32 0
BBX 26 33 4 0
BITMAP
FFFFF000
FFFFF800
FFFFFC00
FFFFFE00
F0003E00
F0001F00
F0001F00
F0001F00
F0001F00
FF801E00
FFF83E00
FFFE7C00
FFFFFC00
F0FFF000
F00FE000
F003F000
F001F800
F000FC00
F0007C00
F0003E00
F0001F00
F0001F00
F0000F00
F0000F80
F0000780
F00007C0
F00007C0
F00007C0
F00003C0
F00003C0
F00003C0
F00003C0
E00001C0
ENDCHAR
STARTCHAR S
ENCODING 83
SWIDTH 611 0
DWIDTH 29 0
BBX 26 33 2 0
BITMAP
0FFFF800
3FFFF800
7FFFF800
FFFFF800
F8000000
F0000000
F0000000
F0000000
F8000000
FF800000
7FFF8000
3FFFF000
0FFFFC00
00FFFE00
0001FF00
00003F00
00001F80
00000F80
000007C0
000007C0
000007C0
000007C0
000007C0
00000780
00000F80
00000F80
00001F00
00003F00
0000FE00
FFFFFC00
FFFFF800
FFFFE000
FFFF8000
ENDCHAR
STARTCHAR T
ENCODING 84
SWIDTH 500 0
DWIDTH 24 0
BBX 24 33 0 0
BITMAP
7FFFFE
FFFFFF
FFFFFF
7FFFFE
003C00
003C00
003C00
003C00
003C00
003C00
003C00
003C00
003C00
003C00
003C00
003C00
003C00
003C00
003C00
003C00
003C00
003C00
003C00
003C00
003C00
003C00
003C00
003C00
003C00
003C00
003C00
003C00
001800
ENDCHAR
STARTCHAR U
ENCODING 85
SWIDTH 611 0
DWIDTH 29 0
BBX 25 33 2 0
BITMAP
1C001C00
3C001E00
3C001E00
3C001E00
3C001E00
3C001E00
3C001F00
3C000F00
78000F00
78000F00
78000F00
78000F00
78000F00
78000F80
78000780
F0000780
F0000780
F0000780
F0000780
F0000780
F0000780
F0000780
F0000780
F0000780
F8000F80
F8000F80
7C001F80
7F003F00
3FC1FE00
1FFFFC00
0FFFF800
03FFE000
007F8000
ENDCHAR
STARTCHAR V
ENCODING 86
SWIDTH 611 0
DWIDTH 29 0
BBX 27 33 1 0
BITMAP
700001C0
F00001E0
F80001E0
F80001E0
F80003E0
780003E0
780003C0
780003C0
7C0003C0
7C0007C0
3C0007C0
3C000780
3E000780
1E000F80
1E000F00
1F000F00
0F001F00
0F001E00
0F801E00
07803E00
07803C00
03C03C00
03C07800
03E07800
01E0F000
01F0F000
00F1E000
00FBE000
007FC000
003FC000
003F8000
001F0000
000E0000
ENDCHAR
STARTCHAR W
ENCODING 87
SWIDTH 833 0
DWIDTH 40 0
BBX 36 33 2 0
BITMAP
6000E000E0
F000F000F0
F000F000F0
F000F000F0
F001F000F0
F001F000F0
F001F800F0
F001F800F0
F001F800F0
F001F801F0
F801F801F0
F801F801E0
7803F801E0
7803FC01E0
7803FC01E0
7803FC03E0
7C03FC03C0
3C079E03C0
3C079E03C0
3C079E07C0
3E079E07C0
1E0F0F0780
1E0F0F0780
1F0F0F0F80
0F1E078F00
0F1E079F00
0FBE079F00
07BC03DE00
07FC03FE00
03F801FC00
03F801FC00
01F000F800
00E0007000
ENDCHAR
STARTCHAR X
ENCODING 88
SWIDTH 611 0
DWIDTH 29 0
BBX 27 33 1 0
BITMAP
1C000380
3C000780
3E000F80
3F001F80
1F801F00
0F803F00
0FC07E00
07E0FC00
03F1F800
01FFF000
00FFE000
003FC000
003F8000
007FC000
00FFE000
01F9F000
03E0F800
07C07C00
07C03E00
0F803E00
1F001F00
1F000F00
3E000F80
3E000F80
3C0007C0
7C0007C0
7C0007C0
780003E0
F80003E0
F80003E0
F80003E0
F00001E0
700001C0
ENDCHAR
STARTCHAR Y
ENCODING 89
SWIDTH 556 0
DWIDTH 27 0
BBX 24 33 1 0
BITMAP
700007
F0000F
F8000F
F8000F
7C001F
7C001E
3C003E
3E003E
1F007C
1F00F8
0F80F8
0FC1F0
07E3E0
03F7E0
01FFC0
00FF80
007F00
003C00
003C00
003C00
003C00
003C00
003C00
003C00
003C00
003C00
003C00
003C00
003C00
003C00
003C00
003C00
001C00
ENDCHAR
STARTCHAR Z
ENCODING 90
SWIDTH 500 0
DWIDTH 24 0
BBX 21 33 1 0
BITMAP
3FFFF0
3FFFF0
3FFFF8
3FFFF8
000078
0000F8
0000F0
0000F0
0001F0
0001F0
0003E0
0007C0
000FC0
001F80
003F00
007E00
00FC00
01FC00
03F800
07F000
07E000
0FC000
1F8000
3F0000
3E0000
7C0000
7C0000
780000
780000
FFFFF8
7FFFF8
7FFFF8
3FFFF8
ENDCHAR
STARTCHAR bracketleft
ENCODING 91
SWIDTH 389 0
DWIDTH 19 0
BBX 11 44 4 -9
BITMAP
7FE0
FFE0
FFE0
F000
F000
F000
F000
F000
F000
F000
F000
F000
F000
F000
F000
F000
F000
F000
F000
F000
F000
F000
F000
F000
F000
F000
F000
F000
F000
F000
F000
F000
F000
F000
F000
F000
F000
F000
F000
F000
F000
FFE0
FFE0
7FE0
ENDCHAR
STARTCHAR backslash
ENCODING 92
SWIDTH 278 0
DWIDTH 13 0
BBX 17 33 -2 0
BITMAP
600000
F00000
780000
780000
7C0000
3C0000
3C0000
1E0000
1E0000
0F0000
0F0000
0F8000
078000
078000
03C000
03C000
01E000
01E000
01F000
00F000
00F000
007800
007800
003C00
003C00
003E00
001E00
001F00
000F00
000F00
000780
000780
000300
ENDCHAR
STARTCHAR bracketright
ENCODING 93
SWIDTH 389 0
DWIDTH 19 0
BBX 10 44 4 -9
BITMAP
FFC0
FFC0
FFC0
03C0
01C0
01C0
01C0
01C0
01C0
01C0
01C0
01C0
01C0
01C0
01C0
01C0
01C0
01C0
01C0
01C0
01C0
01C0
01C0
01C0
01C0
01C0
01C0
01C0
01C0
01C0
01C0
01C0
01C0
01C0
01C0
01C0
01C0
01C0
01C0
01C0
03C0
FFC0
FFC0
FFC0
ENDCHAR
STARTCHAR asciicircum
ENCODING 94
SWIDTH 600 0
DWIDTH 29 0
BBX 23 20 3 13
BITMAP
007800
007C00
00FC00
00FE00
01EE00
01EF00
03CF00
03C780
078780
0783C0
0F03C0
0F01E0
1E01E0
1E00F0
3C00F0
3C0078
780078
78003C
F0003C
F0001E
ENDCHAR
STARTCHAR underscore
ENCODING 95
SWIDTH 500 0
DWIDTH 24 0
BBX 24 2 0 -6
BITMAP
FFFFFF
FFFFFF
ENDCHAR
STARTCHAR grave
ENCODING 96
SWIDTH 222 0
DWIDTH 11 0
BBX 13 7 -1 27
BITMAP
6000
FC00
FF80
FFE0
1FF8
01F8
0030
ENDCHAR
STARTCHAR a
ENCODING 97
SWIDTH 500 0
DWIDTH 24 0
BBX 20 24 1 0
BITMAP
3FFF00
7FFFC0
7FFFE0
3FFFE0
0001F0
0000F0
0000F0
0000F0
003FF0
03FFF0
0FFFF0
3FF0F0
7F00F0
FC00F0
F800F0
F000F0
F000F0
F000F0
F001F0
F803F0
7E0FF0
3FFFF0
1FFCF0
07F070
ENDCHAR
STARTCHAR b
ENCODING 98
SWIDTH 556 0
DWIDTH 27 0
BBX 22 33 3 0
BITMAP
700000
F00000
F00000
F00000
F00000
F00000
F00000
F00000
F00000
FFC000
FFF800
FFFE00
FFFF80
F07FC0
F00FE0
F003F0
F001F0
F000F8
F000F8
F00078
F0007C
F0007C
F0007C
F0007C
F0007C
F0007C
F00078
F000F8
F003F0
FFFFF0
FFFFE0
FFFF80
7FFC00
ENDCHAR
STARTCHAR c
ENCODING 99
SWIDTH 500 0
DWIDTH 24 0
BBX 22 24 2 0
BITMAP
01FFF0
0FFFF0
1FFFF0
3FFFE0
7F0000
7C0000
F80000
F80000
F80000
F00000
F00000
F00000
F80000
F80000
780000
7C0000
7C0000
3E0000
1F8000
0FE000
07FFF8
03FFFC
01FFFC
003FF8
ENDCHAR
STARTCHAR d
ENCODING 100
SWIDTH 556 0
DWIDTH 27 0
BBX 22 33 2 0
BITMAP
000038
00003C
00007C
00007C
00007C
00007C
00007C
00007C
00007C
000FFC
00FFFC
03FFFC
07FFFC
1FF87C
1FC07C
3F007C
7E007C
7C007C
F8007C
F8007C
F0007C
F0007C
F0007C
F0007C
F0007C
F8007C
F8007C
7C007C
7F007C
3FFFFC
1FFFFC
0FFFFC
01FFF8
ENDCHAR
STARTCHAR e
ENCODING 101
SWIDTH 556 0
DWIDTH 27 0
BBX 23 24 2 0
BITMAP
00FF00
03FFC0
0FFFE0
1FFFF0
3F00F8
3E007C
7C003C
78003E
F8001E
FFFFFE
FFFFFE
FFFFFE
F00000
F00000
F80000
F80000
780000
7C0000
3E0000
3F0000
1FFFF8
0FFFFE
03FFFE
00FFFC
ENDCHAR
STARTCHAR f
ENCODING 102
SWIDTH 333 0
DWIDTH 16 0
BBX 16 33 2 0
BITMAP
01FE
07FF
0FFF
0FFE
0F80
1F00
1F00
1F00
1F00
FFF8
FFFC
FFFC
FFF8
1F00
1F00
1F00
1F00
1F00
1F00
1F00
1F00
1F00
1F00
1F00
1F00
1F00
1F00
1F00
1F00
1F00
1F00
1E00
0E00
ENDCHAR
STARTCHAR g
ENCODING 103
SWIDTH 556 0
DWIDTH 27 0
BBX 26 33 1 -9
BITMAP
000FFE00
007FFF00
01FFFF00
07FFFE00
0FE03C00
1F803C00
1F003C00
3E003C00
3C003C00
7C003C00
78003C00
78003C00
78003C00
78003C00
78003C00
78003C00
78003C00
7C003C00
3E003C00
1F803C00
1FFFFE00
07FFFF00
01FFFF80
001F0F80
000007C0
000003C0
00000780
00000F80
FC003F80
FFFFFF00
7FFFFC00
1FFFF000
01FF8000
ENDCHAR
STARTCHAR h
ENCODING 104
SWIDTH 556 0
DWIDTH 27 0
BBX 21 33 3 0
BITMAP
700000
F00000
F00000
F00000
F00000
F00000
F00000
F00000
F00000
F0FE00
F3FF80
F7FFC0
FFFFE0
FF03F0
FE01F0
FC00F0
F800F0
F800F8
F000F8
F000F8
F000F8
F000F8
F000F8
F000F8
F000F8
F000F8
F000F8
F000F8
F000F8
F000F8
F000F8
F000F0
700070
ENDCHAR
STARTCHAR i
ENCODING 105
SWIDTH 222 0
DWIDTH 11 0
BBX 5 32 3 0
BITMAP
70
F0
F8
F8
F0
20
00
00
70
F0
F0
F0
F0
F0
F0
F0
F0
F0
F0
F0
F0
F0
F0
F0
F0
F0
F0
F0
F0
F0
F0
70
ENDCHAR
STARTCHAR j
ENCODING 106
SWIDTH 222 0
DWIDTH 11 0
BBX 16 41 -8 -9
BITMAP
000E
001E
001F
001F
001E
0004
0000
0000
000E
001E
001E
001E
001E
001E
001E
001E
001E
001E
001E
001E
001E
001E
001E
001E
001E
001E
001E
001E
001E
001E
001E
001E
001E
001E
003E
003E
007E
7FFC
FFF8
FFF0
7FC0
ENDCHAR
STARTCHAR k
ENCODING 107
SWIDTH 500 0
DWIDTH 24 0
BBX 20 33 3 0
BITMAP
700000
F00000
F00000
F00000
F00000
F00000
F00000
F00000
F00000
F001C0
F001C0
F003C0
F007C0
F00FC0
F01F80
F07F00
FFFE00
FFF800
FFFC00
F3FE00
F03F00
F00F80
F007C0
F003C0
F003E0
F001E0
F001F0
F001F0
F000F0
F000F0
F000F0
F000F0
700070
ENDCHAR
STARTCHAR l
ENCODING 108
SWIDTH 222 0
DWIDTH 11 0
BBX 4 33 3 0
BITMAP
70
F0
F0
F0
F0
F0
F0
F0
F0
F0
F0
F0
F0
F0
F0
F0
F0
F0
F0
F0
F0
F0
F0
F0
F0
F0
F0
F0
F0
F0
F0
F0
70
ENDCHAR
STARTCHAR m
ENCODING 109
SWIDTH 889 0
DWIDTH 43 0
BBX 37 24 3 0
BITMAP
60FE00FE00
F3FF83FF80
F7FFC7FFC0
FFFFEFFFE0
FF07FF03F0
FC01FE01F0
FC01FC00F0
F800F800F0
F800F800F8
F000F000F8
F000F000F8
F000F000F8
F000F000F8
F000F000F8
F000F000F8
F000F000F8
F000F000F8
F000F000F8
F000F000F8
F000F000F8
F000F000F8
F000F000F8
F000F000F0
7000700070
ENDCHAR
STARTCHAR n
ENCODING 110
SWIDTH 556 0
DWIDTH 27 0
BBX 21 24 3 0
BITMAP
60FE00
F3FF80
F7FFC0
FFFFE0
FF03F0
FE01F0
FC00F0
F800F0
F800F8
F000F8
F000F8
F000F8
F000F8
F000F8
F000F8
F000F8
F000F8
F000F8
F000F8
F000F8
F000F8
F000F8
F000F0
700070
ENDCHAR
STARTCHAR o
ENCODING 111
SWIDTH 556 0
DWIDTH 27 0
BBX 23 24 2 0
BITMAP
00FC00
03FF80
0FFFC0
1FFFE0
3F01F0
3E00F8
7C007C
78007C
F8003C
F0003E
F0001E
F0001E
F0001E
F0001E
F0003E
F8003C
78007C
7C007C
3E00F8
3F01F0
1FFFF0
0FFFC0
03FF80
00FE00
ENDCHAR
STARTCHAR p
ENCODING 112
SWIDTH 556 0
DWIDTH 27 0
BBX 22 33 3 -9
BITMAP
7FE000
FFFC00
FFFF00
FFFF80
F03FC0
F007E0
F003F0
F001F0
F000F8
F00078
F0007C
F0007C
F0007C
F0007C
F0007C
F0007C
F00078
F000F8
F001F8
F007F0
FFFFE0
FFFFC0
FFFF80
FFFC00
F00000
F00000
F00000
F00000
F00000
F00000
F00000
F00000
600000
ENDCHAR
STARTCHAR q
ENCODING 113
SWIDTH 556 0
DWIDTH 27 0
BBX 22 33 2 -9
BITMAP
001FF8
00FFFC
03FFFC
07FFFC
1FE03C
1F803C
3E003C
7C003C
7C003C
F8003C
F8003C
F0003C
F0003C
F0003C
F0003C
F0003C
F8003C
F8003C
7C003C
7F003C
3FFFFC
1FFFFC
07FFFC
00FFFC
00003C
00003C
00003C
00003C
00003C
00003C
00003C
00003C
000038
ENDCHAR
STARTCHAR r
ENCODING 114
SWIDTH 333 0
DWIDTH 16 0
BBX 13 24 3 0
BITMAP
70F8
F3F8
F7F8
F7F0
FF00
FC00
F800
F800
F800
F000
F000
F000
F000
F000
F000
F000
F000
F000
F000
F000
F000
F000
F000
7000
ENDCHAR
STARTCHAR s
ENCODING 115
SWIDTH 500 0
DWIDTH 24 0
BBX 22 24 1 0
BITMAP
07FFE0
1FFFE0
3FFFE0
7FFFE0
780000
780000
7C0000
7FE000
3FFF00
1FFFE0
03FFF0
000FF8
0000F8
000078
00007C
00003C
000078
000078
000078
0001F8
7FFFF0
FFFFE0
FFFFC0
7FFF00
ENDCHAR
STARTCHAR t
ENCODING 116
SWIDTH 333 0
DWIDTH 16 0
BBX 14 30 2 0
BITMAP
1E00
1E00
1E00
1E00
1E00
1E00
FFF8
FFF8
FFF8
7FF8
1E00
1E00
1E00
1E00
1E00
1E00
1E00
1E00
1E00
1E00
1E00
1E00
1E00
1E00
1E00
1F00
1FF8
0FFC
07FC
01FC
ENDCHAR
STARTCHAR u
ENCODING 117
SWIDTH 556 0
DWIDTH 27 0
BBX 21 24 3 0
BITMAP
700070
F000F0
F000F8
F000F8
F000F8
F000F8
F000F8
F000F8
F000F8
F000F8
F000F8
F000F8
F000F8
F000F8
F000F8
F800F8
F800F8
F801F8
7C03F8
7E07F8
3FFF78
3FFF78
0FFE70
03F870
ENDCHAR
STARTCHAR v
ENCODING 118
SWIDTH 500 0
DWIDTH 24 0
BBX 22 24 1 0
BITMAP
600018
F0003C
F0003C
F0003C
F0003C
F8007C
780078
780078
780078
3C00F0
3C00F0
3E01F0
1E01E0
1E01E0
0F03C0
0F07C0
078780
07CF80
03CF00
03FF00
01FE00
00FC00
00FC00
007800
ENDCHAR
STARTCHAR w
ENCODING 119
SWIDTH 722 0
DWIDTH 35 0
BBX 31 24 2 0
BITMAP
E003800C
E003801E
E007801E
E007801E
F007C01E
F007C01E
F007C01E
F00FC01E
F00FE01E
F00FE01E
F01EE03C
F01EE03C
781EF03C
783CF03C
783C7878
7C3C7878
3C787878
3C783CF8
3EF83EF0
1EF01FF0
1FF01FE0
0FE00FE0
07C007C0
03800380
ENDCHAR
STARTCHAR x
ENCODING 120
SWIDTH 500 0
DWIDTH 24 0
BBX 22 24 1 0
BITMAP
380070
780070
7C00F8
3C00F0
3C00F0
3E01F0
1F03E0
1F87E0
0FFFC0
07FF80
01FE00
03FF00
07FF80
0FCFC0
1F87E0
3F03F0
3E01F0
7C00F8
780078
F8007C
F8007C
F8007C
F0003C
700038
ENDCHAR
STARTCHAR y
ENCODING 121
SWIDTH 500 0
DWIDTH 24 0
BBX 22 33 1 -9
BITMAP
70001C
F0003C
F0003C
F8003C
F8003C
78003C
78007C
7C007C
7C0078
3C00F8
3C00F8
3E00F0
1E01F0
1F01E0
0F01E0
0F83C0
0787C0
07C780
03CF80
03EF00
01FF00
00FE00
00FC00
007C00
00F800
01F000
03F000
03E000
07C000
0FC000
0F8000
0F0000
0E0000
ENDCHAR
STARTCHAR z
ENCODING 122
SWIDTH 444 0
DWIDTH 21 0
BBX 19 24 1 0
BITMAP
3FFFC0
7FFFE0
7FFFE0
3FFFE0
0001E0
0003C0
0007C0
000F80
003F00
007E00
00FC00
01F800
03F000
07E000
1F8000
3F0000
3E0000
7C0000
F80000
F80000
FFFFE0
FFFFE0
FFFFE0
7FFFE0
ENDCHAR
STARTCHAR braceleft
ENCODING 123
SWIDTH 389 0
DWIDTH 19 0
BBX 15 44 2 -9
BITMAP
01FC
03FE
07FC
0F80
0F00
0F00
0F00
0F00
0F00
0F00
0F00
0F00
0F00
0F00
0F00
0F00
0F00
0F00
1F00
1E00
3E00
FC00
F000
FC00
3E00
1E00
0F00
0F00
0F00
0F00
0F00
0F00
0F00
0F00
0F00
0F00
0F00
0F00
0F00
0F00
0F80
07FC
03FE
01FC
ENDCHAR
STARTCHAR bar
ENCODING 124
SWIDTH 222 0
DWIDTH 11 0
BBX 4 48 3 -12
BITMAP
F0
F0
F0
F0
F0
F0
F0
F0
F0
F0
F0
F0
F0
F0
F0
F0
F0
F0
F0
F0
F0
F0
F0
F0
F0
F0
F0
F0
F0
F0
F0
F0
F0
F0
F0
F0
F0
F0
F0
F0
F0
F0
F0
F0
F0
F0
F0
F0
ENDCHAR
STARTCHAR braceright
ENCODING 125
SWIDTH 389 0
DWIDTH 19 0
BBX 15 44 2 -9
BITMAP
FF00
FF80
FFC0
03C0
03C0
03E0
01E0
01E0
01E0
01E0
01E0
01E0
01E0
01E0
01E0
01E0
01E0
01E0
01E0
01F0
00F8
007E
001E
007E
00F8
01F0
01E0
01E0
01E0
01E0
01E0
01E0
01E0
01E0
01E0
01E0
01E0
01E0
03C0
03C0
03C0
FFC0
FF80
FF00
ENDCHAR
STARTCHAR asciitilde
ENCODING 126
SWIDTH 600 0
DWIDTH 29 0
BBX 22 7 3 9
BITMAP
060008
1FE00C
3FFC1C
7FFFFC
F07FF8
601FF0
6003E0
ENDCHAR
STARTCHAR uni00A0
ENCODING 160
SWIDTH 305 0
DWIDTH 15 0
BBX 1 1 0 0
BITMAP
00
ENDCHAR
STARTCHAR exclamdown
ENCODING 161
SWIDTH 278 0
DWIDTH 13 0
BBX 5 33 4 -9
BITMAP
70
F8
F8
F8
70
00
00
00
00
70
70
78
78
78
78
78
78
78
78
78
F8
F8
F8
F8
F8
F8
F8
F8
F8
F8
F8
F8
70
ENDCHAR
STARTCHAR cent
ENCODING 162
SWIDTH 611 0
DWIDTH 29 0
BBX 19 35 4 0
BITMAP
003800
003C00
003C00
003C00
003C00
003C00
003C00
07FFE0
0FFFE0
1FFFE0
3F3C00
7C3C00
783C00
783C00
F83C00
F83C00
F83C00
F83C00
783C00
7C3C00
7C3C00
3E3C00
3F3C00
1FBC00
0FFC00
07FFE0
01FFE0
007FE0
003C00
003C00
003C00
003C00
003C00
003C00
003800
ENDCHAR
STARTCHAR sterling
ENCODING 163
SWIDTH 611 0
DWIDTH 29 0
BBX 27 33 0 0
BITMAP
0000FE00
0007FFC0
000FFFC0
001FFFE0
003F01C0
003E0000
007C0000
00780000
00780000
00780000
00780000
00780000
00780000
07FFFE00
0FFFFF00
0FFFFF00
07FFFE00
00780000
00780000
00780000
00780000
00780000
00780000
00780000
00780000
00780000
00F80000
00F00000
0FF00000
7FFFFF80
FFFFFF80
FFFFFF80
F003FE00
ENDCHAR
STARTCHAR currency
ENCODING 164
SWIDTH 611 0
DWIDTH 29 0
BBX 24 24 3 5
BITMAP
403804
E3FF8E
F7FFDF
7FFFFE
3F83FC
3E00F8
7C007C
78003E
F8001E
F0001E
F0001E
F0000F
F0000F
F0001E
F0001E
F0001E
F8003E
7C003C
3E007C
3F01F8
7FFFFC
FFFFFE
F3FF8E
60FE04
ENDCHAR
STARTCHAR yen
ENCODING 165
SWIDTH 611 0
DWIDTH 29 0
BBX 25 33 2 0
BITMAP
70000700
78000F80
78000F80
7C000F00
7C001F00
3C001F00
3E003E00
1E003E00
1F007C00
0F807800
7F80FF00
FFC1FF80
FFF3FF80
7FFFFF80
01FFC000
00FF8000
007F0000
001E0000
3FFFFE00
7FFFFF00
7FFFFF00
3FFFFE00
001E0000
001E0000
001E0000
001E0000
001E0000
001E0000
001E0000
001E0000
001E0000
001E0000
001C0000
ENDCHAR
STARTCHAR brokenbar
ENCODING 166
SWIDTH 222 0
DWIDTH 11 0
BBX 4 41 3 -8
BITMAP
F0
F0
F0
F0
F0
F0
F0
F0
F0
F0
F0
F0
F0
F0
F0
F0
F0
00
00
00
00
00
00
00
F0
F0
F0
F0
F0
F0
F0
F0
F0
F0
F0
F0
F0
F0
F0
F0
F0
ENDCHAR
STARTCHAR section
ENCODING 167
SWIDTH 500 0
DWIDTH 24 0
BBX 20 33 2 0
BITMAP
0FFF80
1FFF80
3FFF80
7FFF80
7C0000
780000
780000
7E0000
7FC000
7FF000
7FFE00
FFFF80
F1FFC0
F03FE0
F807F0
FE01F0
7FC0F0
7FF8F0
1FFEF0
03FFF0
007FF0
001FE0
0003E0
0001E0
0001E0
0001E0
0001E0
0003E0
0007C0
7FFFC0
FFFF80
FFFF00
FFFC00
ENDCHAR
STARTCHAR dieresis
ENCODING 168
SWIDTH 222 0
DWIDTH 11 0
BBX 16 5 -3 28
BITMAP
380E
7C1F
FC1F
7C1F
780E
ENDCHAR
STARTCHAR copyright
ENCODING 169
SWIDTH 800 0
DWIDTH 38 0
BBX 34 33 2 0
BITMAP
0007F80000
003FFF0000
00FFFFC000
01FC0FF000
03E001F800
0780007C00
0F03F83E00
1E0FFE1E00
3C1FFF0F00
3C3F1F8700
787C078780
787803C380
78F003C380
70F00003C0
70F00003C0
F0F00003C0
F0F00003C0
F0F00003C0
F0F00003C0
70F00003C0
70F003C3C0
787803C380
787C078780
3C3F0F0700
3C1FFF0F00
1E0FFE1E00
0F03F83E00
0780007C00
07E001F800
01FC0FF000
00FFFFC000
003FFF0000
0007FC0000
ENDCHAR
STARTCHAR ordfeminine
ENCODING 170
SWIDTH 300 0
DWIDTH 14 0
BBX 13 15 0 18
BITMAP
7FE0
7FF0
3FF8
0038
0038
07F8
3FF8
7C38
F038
E038
E038
E038
F0F8
7FF8
1F98
ENDCHAR
STARTCHAR guillemotleft
ENCODING 171
SWIDTH 444 0
DWIDTH 21 0
BBX 16 18 2 3
BITMAP
0E07
0E0F
1E0F
1E1E
3C1E
7C3C
787C
F878
F0F8
F078
7878
783C
3C3C
3C1E
1E1E
1E0F
0E0F
0E06
ENDCHAR
STARTCHAR logicalnot
ENCODING 172
SWIDTH 600 0
DWIDTH 29 0
BBX 25 14 2 5
BITMAP
FFFFFF80
FFFFFF80
FFFFFF80
FFFFFF80
00000780
00000780
00000780
00000780
00000780
00000780
00000780
00000780
00000780
00000780
ENDCHAR
STARTCHAR uni00AD
ENCODING 173
SWIDTH 333 0
DWIDTH 16 0
BBX 12 4 2 10
BITMAP
7FE0
FFF0
FFF0
3FC0
ENDCHAR
STARTCHAR registered
ENCODING 174
SWIDTH 800 0
DWIDTH 38 0
BBX 34 33 2 0
BITMAP
0007F80000
003FFF0000
00FFFFC000
01FC0FE000
03E001F800
0780007C00
0F00003C00
1E3FFC1E00
3C3FFF0F00
3C3FFF8700
383C078780
783C038780
783C038380
703C0383C0
F03C0783C0
F03FFF03C0
F03FFE03C0
F03FF003C0
F03C7803C0
703C3803C0
783C1C0380
783C1E0380
383C0E0780
3C3C070700
3C3C078F00
1E3C039E00
0F00003E00
0780007C00
03E001F800
01FC0FF000
00FFFFC000
003FFF0000
0007F80000
ENDCHAR
STARTCHAR macron
ENCODING 175
SWIDTH 222 0
DWIDTH 11 0
BBX 13 3 -1 29
BITMAP
FFF8
FFF8
FFF8
ENDCHAR
STARTCHAR degree
ENCODING 176
SWIDTH 400 0
DWIDTH 19 0
BBX 13 14 3 19
BITMAP
0F80
3FE0
7FF0
7078
E038
E038
E038
E038
E038
F038
78F8
7FF0
1FE0
0F80
ENDCHAR
STARTCHAR plusminus
ENCODING 177
SWIDTH 600 0
DWIDTH 29 0
BBX 25 24 2 0
BITMAP
003C0000
003C0000
003C0000
003C0000
003C0000
003C0000
FFFFFF80
FFFFFF80
FFFFFF80
FFFFFF80
003C0000
003C0000
003C0000
003C0000
003C0000
003C0000
00000000
00000000
00000000
00000000
FFFFFF80
FFFFFF80
FFFFFF80
FFFFFF80
ENDCHAR
STARTCHAR twosuperior
ENCODING 178
SWIDTH 366 0
DWIDTH 18 0
BBX 15 20 1 13
BITMAP
7FE0
FFF8
7FFC
003C
001C
001C
003C
003C
00F8
01F0
07E0
0F80
3E00
7C00
F000
E000
E000
FFFC
FFFE
FFFC
ENDCHAR
STARTCHAR threesuperior
ENCODING 179
SWIDTH 366 0
DWIDTH 18 0
BBX 15 20 1 13
BITMAP
FFF8
FFF8
7FF0
01E0
0780
1F00
3FC0
3FF0
01F8
003C
001E
000E
000E
000E
000E
001E
003C
FFFC
FFF0
FFC0
ENDCHAR
STARTCHAR acute
ENCODING 180
SWIDTH 222 0
DWIDTH 11 0
BBX 13 7 -1 27
BITMAP
0070
01F8
0FF8
7FF0
FFC0
FC00
E000
ENDCHAR
STARTCHAR mu
ENCODING 181
SWIDTH 556 0
DWIDTH 27 0
BBX 21 33 3 -9
BITMAP
700070
F000F0
F000F8
F000F8
F000F8
F000F8
F000F8
F000F8
F000F8
F000F8
F000F8
F000F8
F000F8
F000F8
F000F8
F800F8
F800F8
F801F8
FC03F8
FE07F8
FFFF78
FFFF78
FFFE70
F3F870
F00000
F00000
F00000
F00000
F00000
F00000
F00000
F00000
700000
ENDCHAR
STARTCHAR paragraph
ENCODING 182
SWIDTH 600 0
DWIDTH 29 0
BBX 22 33 2 0
BITMAP
01FFFC
0FFFFC
1FFFFC
3FFC3C
7FFC3C
7FFC3C
FFFC3C
FFFC3C
FFFC3C
FFFC3C
FFFC3C
FFFC3C
7FFC3C
7FFC3C
3FFC3C
1FFC3C
07FC3C
01FC3C
003C3C
003C3C
003C3C
003C3C
003C3C
003C3C
003C3C
003C3C
003C3C
003C3C
003C3C
003C3C
003C3C
003C3C
003C3C
ENDCHAR
STARTCHAR periodcentered
ENCODING 183
SWIDTH 305 0
DWIDTH 15 0
BBX 5 5 5 10
BITMAP
70
F8
F8
F8
F0
ENDCHAR
STARTCHAR cedilla
ENCODING 184
SWIDTH 222 0
DWIDTH 11 0
BBX 12 10 0 -9
BITMAP
0E00
0C00
0C00
0F80
0FE0
01E0
00F0
C1F0
FFE0
3F80
ENDCHAR
STARTCHAR onesuperior
ENCODING 185
SWIDTH 366 0
DWIDTH 18 0
BBX 11 20 3 13
BITMAP
1E00
FE00
FE00
0E00
0E00
0E00
0E00
0E00
0E00
0E00
0E00
0E00
0E00
0E00
0E00
0E00
0E00
FFE0
FFE0
FFE0
ENDCHAR
STARTCHAR ordmasculine
ENCODING 186
SWIDTH 334 0
DWIDTH 16 0
BBX 15 15 0 18
BITMAP
07E0
1FF0
3FFC
381C
700E
700E
700E
E00E
700E
700E
700E
381C
3FFC
1FF8
07E0
ENDCHAR
STARTCHAR guillemotright
ENCODING 187
SWIDTH 444 0
DWIDTH 21 0
BBX 17 18 3 3
BITMAP
707000
F07800
787800
783C00
3C3C00
3C1E00
1E1E00
1E0F00
0F0F80
1F0F00
1E1F00
3E1E00
3C3E00
7C3C00
787C00
F07800
F07000
607000
ENDCHAR
STARTCHAR onequarter
ENCODING 188
SWIDTH 916 0
DWIDTH 44 0
BBX 38 33 3 0
BITMAP
1E00000C00
FE00001E00
FE00001E00
0E00003C00
0E00007800
0E00007000
0E0000F000
0E0001E000
0E0003C000
0E0003C000
0E00078000
0E000F0000
0E000F0000
0E001E00C0
0E003C07E0
0E00380FE0
0E00781EE0
FFE0F03CE0
FFE1E078E0
FFE1E0F0E0
0003C1E0E0
000781C0E0
000783C0E0
000F0380E0
001E0380E0
001C0380E0
003C07FFFC
007807FFFC
007003FFFC
00F00000E0
01E00000E0
01C00000E0
01800000E0
ENDCHAR
STARTCHAR onehalf
ENCODING 189
SWIDTH 916 0
DWIDTH 44 0
BBX 39 33 2 0
BITMAP
0E00000C00
7F00001E00
FF00003C00
0F00003C00
0F00007800
0F0000F000
0F0000F000
0F0001E000
0F0003C000
0F00038000
0F00078000
0F000F0000
0F001E0000
0F001E7FE0
0F003CFFF8
0F00787FF8
0F0078007C
7FE0F0003C
FFF1E0001C
7FE3C0001C
0003C0003C
0007800078
000F0001F0
000F0003E0
001E000F80
003C003F00
0038007C00
0078007000
00F000E000
01E000E000
01E000FFFC
03C000FFFE
018000FFFC
ENDCHAR
STARTCHAR threequarters
ENCODING 190
SWIDTH 916 0
DWIDTH 44 0
BBX 40 33 2 0
BITMAP
7FF8000300
FFF8000780
7FF0000700
01E0000F00
0780001E00
1F00001C00
3FC0003C00
3FF0007800
01FC00F000
003C00F000
001E01E000
000E03C000
000E038000
000E078030
000E0F01F8
001E0E03F8
003C1E07B8
FFFC3C0F38
FFF0781E38
FFC0783C38
0000F07838
0001E07038
0001C0F038
0003C0E038
000780E038
000700E038
000F01FFFF
001E01FFFF
003C00FFFF
003C000038
0078000038
0070000038
0060000030
ENDCHAR
STARTCHAR questiondown
ENCODING 191
SWIDTH 500 0
DWIDTH 24 0
BBX 20 33 3 -9
BITMAP
001C00
003C00
003E00
003C00
003C00
000000
000000
000000
001800
003C00
003C00
003C00
007C00
00FC00
01F800
03F000
07E000
1FC000
3F8000
7F0000
7C0000
F80000
F80000
F00000
F00000
F00000
F00000
F80000
FC0000
7FFFE0
3FFFF0
1FFFF0
07FFE0
ENDCHAR
STARTCHAR Agrave
ENCODING 192
SWIDTH 667 0
DWIDTH 32 0
BBX 28 41 2 0
BITMAP
00F00000
00FC0000
00FF8000
00FFE000
001FF800
0001F000
00001000
00000000
000E0000
001F0000
003F8000
007FC000
007FE000
00FBE000
01F1F000
01F0F000
03E0F800
03E07800
07C07C00
07C03C00
0F803E00
0F801E00
0FF01F00
1FFE0F00
1FFF8F80
1FFFE780
3E07F780
3C00FFC0
3C003FC0
7C001FC0
78000FE0
780007E0
780003E0
F80003E0
F00001F0
F00001F0
F00001F0
F00000F0
F00000F0
F00000F0
E0000070
ENDCHAR
STARTCHAR Aacute
ENCODING 193
SWIDTH 667 0
DWIDTH 32 0
BBX 28 41 2 0
BITMAP
0000F000
0003F000
001FF000
007FF000
00FF8000
00F80000
00C00000
00000000
000E0000
001F0000
003F8000
007FC000
007FE000
00FBE000
01F1F000
01F0F000
03E0F800
03E07800
07C07C00
07C03C00
0F803E00
0F801E00
0FF01F00
1FFE0F00
1FFF8F80
1FFFE780
3E07F780
3C00FFC0
3C003FC0
7C001FC0
78000FE0
780007E0
780003E0
F80003E0
F00001F0
F00001F0
F00001F0
F00000F0
F00000F0
F00000F0
E0000070
ENDCHAR
STARTCHAR Acircumflex
ENCODING 194
SWIDTH 667 0
DWIDTH 32 0
BBX 28 41 2 0
BITMAP
000F0000
001F8000
003FC000
0079E000
00F9F000
01F0F800
01E07800
00000000
000E0000
001F0000
003F8000
007FC000
007FE000
00FBE000
01F1F000
01F0F000
03E0F800
03E07800
07C07C00
07C03C00
0F803E00
0F801E00
0FF01F00
1FFE0F00
1FFF8F80
1FFFE780
3E07F780
3C00FFC0
3C003FC0
7C001FC0
78000FE0
780007E0
780003E0
F80003E0
F00001F0
F00001F0
F00001F0
F00000F0
F00000F0
F00000F0
E0000070
ENDCHAR
STARTCHAR Atilde
ENCODING 195
SWIDTH 667 0
DWIDTH 32 0
BBX 28 41 2 0
BITMAP
00000400
00FC0C00
01FF9C00
03FFFC00
038FF800
0301F000
00000000
00000000
000E0000
001F0000
003F8000
007FC000
007FE000
00FBE000
01F1F000
01F0F000
03E0F800
03E07800
07C07C00
07C03C00
0F803E00
0F801E00
0FF01F00
1FFE0F00
1FFF8F80
1FFFE780
3E07F780
3C00FFC0
3C003FC0
7C001FC0
78000FE0
780007E0
780003E0
F80003E0
F00001F0
F00001F0
F00001F0
F00000F0
F00000F0
F00000F0
E0000070
ENDCHAR
STARTCHAR Adieresis
ENCODING 196
SWIDTH 667 0
DWIDTH 32 0
BBX 28 40 2 0
BITMAP
01C03800
03E07C00
03E07C00
03E07C00
01E07800
00000000
00000000
000E0000
001F0000
003F8000
007FC000
007FE000
00FBE000
01F1F000
01F0F000
03E0F800
03E07800
07C07C00
07C03C00
0F803E00
0F801E00
0FF01F00
1FFE0F00
1FFF8F80
1FFFE780
3E07F780
3C00FFC0
3C003FC0
7C001FC0
78000FE0
780007E0
780003E0
F80003E0
F00001F0
F00001F0
F00001F0
F00000F0
F00000F0
F00000F0
E0000070
ENDCHAR
STARTCHAR Aring
ENCODING 197
SWIDTH 667 0
DWIDTH 32 0
BBX 28 44 2 0
BITMAP
000F0000
001FC000
0039E000
00306000
00706000
00706000
00306000
0039E000
001FC000
000F8000
00000000
000E0000
001F0000
003F8000
007FC000
007FE000
00FBE000
01F1F000
01F0F000
03E0F800
03E07800
07C07C00
07C03C00
0F803E00
0F801E00
0FF01F00
1FFE0F00
1FFF8F80
1FFFE780
3E07F780
3C00FFC0
3C003FC0
7C001FC0
78000FE0
780007E0
780003E0
F80003E0
F00001F0
F00001F0
F00001F0
F00000F0
F00000F0
F00000F0
E0000070
ENDCHAR
STARTCHAR AE
ENCODING 198
SWIDTH 944 0
DWIDTH 45 0
BBX 42 33 1 0
BITMAP
000007FFFFC0
00001FFFFFC0
00007FFFFFC0
0000FFFFFFC0
0001FDE00000
0003F1E00000
0007E1E00000
000FC1E00000
001F81E00000
001F01E7FF80
003E01FFFF80
007C0FFFFF80
00F87FFFFF80
00F1FFF80000
01F3FDE00000
03EFE1E00000
03DF81E00000
07BE01E00000
07F801E00000
0FF001E00000
0FE001E00000
1FC001E00000
1F8001E00000
3F0001E00000
3E0001E00000
7C0001E00000
7C0001E00000
780001E00000
F80001E00000
F00001FFFFC0
F00001FFFFC0
E00001FFFFC0
E00001FFFFC0
ENDCHAR
STARTCHAR Ccedilla
ENCODING 199
SWIDTH 611 0
DWIDTH 29 0
BBX 26 42 2 -9
BITMAP
007FFF00
03FFFF80
07FFFF80
0FFFFF00
1FC00000
3F000000
7E000000
7C000000
7C000000
F8000000
F8000000
F8000000
F8000000
F8000000
F8000000
F8000000
F8000000
F8000000
7C000000
7C000000
7C000000
3E000000
3F000000
1F800000
0FC00000
0FE00000
07F80000
03FE0000
00FFC000
007FFFC0
003FFFC0
0007FFC0
0001FF80
00030000
00030000
0003E000
0003F800
00007C00
00003C00
00303C00
003FF800
000FE000
ENDCHAR
STARTCHAR Egrave
ENCODING 200
SWIDTH 556 0
DWIDTH 27 0
BBX 21 41 4 0
BITMAP
0F0000
1FE000
1FF800
0FFE00
00FF00
000F00
000000
000000
FFFFF0
FFFFF8
FFFFF8
FFFFF0
F00000
F00000
F00000
F00000
F00000
FFFFF0
FFFFF0
FFFFF0
FFFFF0
F00000
F00000
F00000
F00000
F00000
F00000
F00000
F00000
F00000
F00000
F00000
F00000
F00000
F00000
F00000
F00000
FFFFF0
FFFFF8
FFFFF8
FFFFF0
ENDCHAR
STARTCHAR Eacute
ENCODING 201
SWIDTH 556 0
DWIDTH 27 0
BBX 21 41 4 0
BITMAP
001F00
007F00
03FF00
0FFE00
1FE000
1F0000
000000
000000
FFFFF0
FFFFF8
FFFFF8
FFFFF0
F00000
F00000
F00000
F00000
F00000
FFFFF0
FFFFF0
FFFFF0
FFFFF0
F00000
F00000
F00000
F00000
F00000
F00000
F00000
F00000
F00000
F00000
F00000
F00000
F00000
F00000
F00000
F00000
FFFFF0
FFFFF8
FFFFF8
FFFFF0
ENDCHAR
STARTCHAR Ecircumflex
ENCODING 202
SWIDTH 556 0
DWIDTH 27 0
BBX 21 42 4 0
BITMAP
00F000
01F800
03F800
07BC00
0F1E00
1F0F00
3E0780
000000
000000
FFFFF0
FFFFF8
FFFFF8
FFFFF0
F00000
F00000
F00000
F00000
F00000
FFFFF0
FFFFF0
FFFFF0
FFFFF0
F00000
F00000
F00000
F00000
F00000
F00000
F00000
F00000
F00000
F00000
F00000
F00000
F00000
F00000
F00000
F00000
FFFFF0
FFFFF8
FFFFF8
FFFFF0
ENDCHAR
STARTCHAR Edieresis
ENCODING 203
SWIDTH 556 0
DWIDTH 27 0
BBX 21 40 4 0
BITMAP
1C0780
3E0F80
3E0F80
3E0F80
1C0700
000000
000000
FFFFF0
FFFFF8
FFFFF8
FFFFF0
F00000
F00000
F00000
F00000
F00000
FFFFF0
FFFFF0
FFFFF0
FFFFF0
F00000
F00000
F00000
F00000
F00000
F00000
F00000
F00000
F00000
F00000
F00000
F00000
F00000
F00000
F00000
F00000
FFFFF0
FFFFF8
FFFFF8
FFFFF0
ENDCHAR
STARTCHAR Igrave
ENCODING 204
SWIDTH 222 0
DWIDTH 11 0
BBX 13 41 -1 0
BITMAP
F000
FE00
FF80
7FF0
0FF8
00F8
0010
0000
0700
0F00
0F00
0F00
0F00
0F00
0F00
0F00
0F00
0F00
0F00
0F00
0F00
0F00
0F00
0F00
0F00
0F00
0F00
0F00
0F00
0F00
0F00
0F00
0F00
0F00
0F00
0F00
0F00
0F00
0F00
0F00
0700
ENDCHAR
STARTCHAR Iacute
ENCODING 205
SWIDTH 222 0
DWIDTH 11 0
BBX 13 41 -1 0
BITMAP
00F0
03F8
1FF8
7FF0
FF00
F800
0000
0000
0700
0F00
0F00
0F00
0F00
0F00
0F00
0F00
0F00
0F00
0F00
0F00
0F00
0F00
0F00
0F00
0F00
0F00
0F00
0F00
0F00
0F00
0F00
0F00
0F00
0F00
0F00
0F00
0F00
0F00
0F00
0F00
0700
ENDCHAR
STARTCHAR Icircumflex
ENCODING 206
SWIDTH 222 0
DWIDTH 11 0
BBX 15 42 -2 0
BITMAP
0780
07C0
0FE0
1EF0
3C78
787C
F01E
0000
0000
0380
0780
0780
0780
0780
0780
0780
0780
0780
0780
0780
0780
0780
0780
0780
0780
0780
0780
0780
0780
0780
0780
0780
0780
0780
0780
0780
0780
0780
0780
0780
0780
0380
ENDCHAR
STARTCHAR Idieresis
ENCODING 207
SWIDTH 222 0
DWIDTH 11 0
BBX 16 40 -3 0
BITMAP
780E
7C1F
FC1F
7C1F
380E
0000
0000
01C0
03C0
03C0
03C0
03C0
03C0
03C0
03C0
03C0
03C0
03C0
03C0
03C0
03C0
03C0
03C0
03C0
03C0
03C0
03C0
03C0
03C0
03C0
03C0
03C0
03C0
03C0
03C0
03C0
03C0
03C0
03C0
01C0
ENDCHAR
STARTCHAR Eth
ENCODING 208
SWIDTH 667 0
DWIDTH 32 0
BBX 30 33 0 0
BITMAP
0FF80000
0FFF8000
1FFFE000
1FFFF800
1F0FFC00
1F01FF00
1F003F80
1F001FC0
1F0007C0
1F0003E0
1F0003F0
1F0001F0
1F0000F8
7FFF00F8
FFFF8078
FFFF807C
FFFF007C
1F00007C
1F00007C
1F00007C
1F00007C
1F00007C
1F00007C
1F00007C
1F000078
1F0000F8
1F0001F0
1F0003F0
1F000FE0
1FFFFFC0
1FFFFF80
1FFFFF00
0FFFF800
ENDCHAR
STARTCHAR Ntilde
ENCODING 209
SWIDTH 611 0
DWIDTH 29 0
BBX 23 41 3 0
BITMAP
00C030
03FC70
07FFE0
0FFFE0
0C3FC0
180000
000000
000000
70001C
FC001E
FE001E
FE001E
FF001E
FF801E
FFC01E
FBF01E
F9F81E
F8FE1E
F87FFE
F83FFE
F80FFE
F801FE
F8001E
F8001E
F8001E
F8001E
F8001E
F8001E
F8001E
F8001E
F8001E
F8001E
F8001E
F8001E
F8001E
F8001E
F8001E
F8001E
F8001E
F0001E
70001C
ENDCHAR
STARTCHAR Ograve
ENCODING 210
SWIDTH 722 0
DWIDTH 35 0
BBX 31 41 2 0
BITMAP
00780000
007E0000
007FC000
007FF800
0007FC00
0000FC00
00000800
00000000
001FE000
007FFC00
01FFFE00
03FFFF80
07F03FC0
0FC007E0
1F8003E0
3F0001F0
3E0000F8
7C0000F8
7C00007C
7C00007C
F800007C
F800003C
F800003E
F800003E
F800003E
F800003E
F800003E
F800003C
F800007C
7C00007C
7C00007C
7C0000F8
3E0000F8
3F0001F0
1F8003F0
0FC007E0
07F01FC0
03FFFF80
01FFFF00
007FFC00
000FE000
ENDCHAR
STARTCHAR Oacute
ENCODING 211
SWIDTH 722 0
DWIDTH 35 0
BBX 31 41 2 0
BITMAP
00003800
0001FC00
0007FC00
003FF800
007FC000
007C0000
00200000
00000000
001FE000
007FFC00
01FFFE00
03FFFF80
07F03FC0
0FC007E0
1F8003E0
3F0001F0
3E0000F8
7C0000F8
7C00007C
7C00007C
F800007C
F800003C
F800003E
F800003E
F800003E
F800003E
F800003E
F800003C
F800007C
7C00007C
7C00007C
7C0000F8
3E0000F8
3F0001F0
1F8003F0
0FC007E0
07F01FC0
03FFFF80
01FFFF00
007FFC00
000FE000
ENDCHAR
STARTCHAR Ocircumflex
ENCODING 212
SWIDTH 722 0
DWIDTH 35 0
BBX 31 41 2 0
BITMAP
0007C000
000FC000
001FE000
001EF000
003C7800
00783C00
00F01E00
00000000
001FE000
007FFC00
01FFFE00
03FFFF80
07F03FC0
0FC007E0
1F8003E0
3F0001F0
3E0000F8
7C0000F8
7C00007C
7C00007C
F800007C
F800003C
F800003E
F800003E
F800003E
F800003E
F800003E
F800003C
F800007C
7C00007C
7C00007C
7C0000F8
3E0000F8
3F0001F0
1F8003F0
0FC007E0
07F01FC0
03FFFF80
01FFFF00
007FFC00
000FE000
ENDCHAR
STARTCHAR Otilde
ENCODING 213
SWIDTH 722 0
DWIDTH 35 0
BBX 31 41 2 0
BITMAP
00000200
007E0700
00FFEE00
00FFFE00
01C3FC00
01807800
00000000
00000000
001FE000
007FFC00
01FFFE00
03FFFF80
07F03FC0
0FC007E0
1F8003E0
3F0001F0
3E0000F8
7C0000F8
7C00007C
7C00007C
F800007C
F800003C
F800003E
F800003E
F800003E
F800003E
F800003E
F800003C
F800007C
7C00007C
7C00007C
7C0000F8
3E0000F8
3F0001F0
1F8003F0
0FC007E0
07F01FC0
03FFFF80
01FFFF00
007FFC00
000FE000
ENDCHAR
STARTCHAR Odieresis
ENCODING 214
SWIDTH 722 0
DWIDTH 35 0
BBX 31 40 2 0
BITMAP
00701C00
00F83E00
01F83E00
00F83E00
00F01C00
00000000
00000000
001FE000
007FFC00
01FFFE00
03FFFF80
07F03FC0
0FC007E0
1F8003E0
3F0001F0
3E0000F8
7C0000F8
7C00007C
7C00007C
F800007C
F800003C
F800003E
F800003E
F800003E
F800003E
F800003E
F800003C
F800007C
7C00007C
7C00007C
7C0000F8
3E0000F8
3F0001F0
1F8003F0
0FC007E0
07F01FC0
03FFFF80
01FFFF00
007FFC00
000FE000
ENDCHAR
STARTCHAR multiply
ENCODING 215
SWIDTH 600 0
DWIDTH 29 0
BBX 24 24 2 0
BITMAP
300004
78000E
FC001F
7E003F
3F007E
1F80FC
0FC1F8
07E3F0
03F7E0
01FFC0
00FF80
007F00
007F00
00FF80
01FFC0
03F7E0
07E3F0
0FC1F8
1F80FC
3F007E
7E003F
FC001F
78000E
300004
ENDCHAR
STARTCHAR Oslash
ENCODING 216
SWIDTH 722 0
DWIDTH 35 0
BBX 31 41 2 -5
BITMAP
00000180
00000380
00000380
001FE780
007FFF00
01FFFF00
03FFFF80
07F03FC0
0FC01FE0
1F803FE0
3F0039F0
3E0078F8
7C0070F8
7C00F07C
7C00E07C
F801E07C
F801C03C
F803C03E
F803803E
F807803E
F807003E
F80F003E
F80E003C
F81E007C
781C007C
7C3C007C
7C3800F8
3E7800F8
3F7001F0
1FF003F0
0FE007E0
07F01FC0
03FFFF80
03FFFF00
03FFFC00
078FE000
07800000
0F000000
0F000000
0E000000
04000000
ENDCHAR
STARTCHAR Ugrave
ENCODING 217
SWIDTH 611 0
DWIDTH 29 0
BBX 25 41 2 0
BITMAP
01E00000
03F80000
03FF0000
01FFC000
001FE000
0003E000
00000000
00000000
1C001C00
3C001E00
3C001E00
3C001E00
3C001E00
3C001E00
3C001F00
3C000F00
78000F00
78000F00
78000F00
78000F00
78000F00
78000F80
78000780
F0000780
F0000780
F0000780
F0000780
F0000780
F0000780
F0000780
F0000780
F0000780
F8000F80
F8000F80
7C001F80
7F003F00
3FC1FE00
1FFFFC00
0FFFF800
03FFE000
007F8000
ENDCHAR
STARTCHAR Uacute
ENCODING 218
SWIDTH 611 0
DWIDTH 29 0
BBX 25 41 2 0
BITMAP
0001E000
000FE000
003FE000
01FFC000
03FE0000
03E00000
00000000
00000000
1C001C00
3C001E00
3C001E00
3C001E00
3C001E00
3C001E00
3C001F00
3C000F00
78000F00
78000F00
78000F00
78000F00
78000F00
78000F80
78000780
F0000780
F0000780
F0000780
F0000780
F0000780
F0000780
F0000780
F0000780
F0000780
F8000F80
F8000F80
7C001F80
7F003F00
3FC1FE00
1FFFFC00
0FFFF800
03FFE000
007F8000
ENDCHAR
STARTCHAR Ucircumflex
ENCODING 219
SWIDTH 611 0
DWIDTH 29 0
BBX 25 42 2 0
BITMAP
001E0000
003F0000
007F0000
00F78000
01E3C000
03E1E000
03C0F000
00000000
00000000
1C001C00
3C001E00
3C001E00
3C001E00
3C001E00
3C001E00
3C001F00
3C000F00
78000F00
78000F00
78000F00
78000F00
78000F00
78000F80
78000780
F0000780
F0000780
F0000780
F0000780
F0000780
F0000780
F0000780
F0000780
F0000780
F8000F80
F8000F80
7C001F80
7F003F00
3FC1FE00
1FFFFC00
0FFFF800
03FFE000
007F8000
ENDCHAR
STARTCHAR Udieresis
ENCODING 220
SWIDTH 611 0
DWIDTH 29 0
BBX 25 40 2 0
BITMAP
0380F000
07C1F000
07C1F000
07C1F000
0380E000
00000000
00000000
1C001C00
3C001E00
3C001E00
3C001E00
3C001E00
3C001E00
3C001F00
3C000F00
78000F00
78000F00
78000F00
78000F00
78000F00
78000F80
78000780
F0000780
F0000780
F0000780
F0000780
F0000780
F0000780
F0000780
F0000780
F0000780
F8000F80
F8000F80
7C001F80
7F003F00
3FC1FE00
1FFFFC00
0FFFF800
03FFE000
007F8000
ENDCHAR
STARTCHAR Yacute
ENCODING 221
SWIDTH 556 0
DWIDTH 27 0
BBX 24 41 1 0
BITMAP
0001E0
000FE0
003FE0
01FFE0
03FE00
01F000
000000
000000
700007
F0000F
F8000F
F8000F
7C001F
7C001E
3C003E
3E003E
1F007C
1F00F8
0F80F8
0FC1F0
07E3E0
03F7E0
01FFC0
00FF80
007F00
003C00
003C00
003C00
003C00
003C00
003C00
003C00
003C00
003C00
003C00
003C00
003C00
003C00
003C00
003C00
001C00
ENDCHAR
STARTCHAR Thorn
ENCODING 222
SWIDTH 556 0
DWIDTH 27 0
BBX 23 33 4 0
BITMAP
E00000
F00000
F00000
F00000
F00000
F00000
FFFFE0
FFFFF8
FFFFFC
FFFFFC
F0007C
F0003E
F0003E
F0003C
F0007C
F000FC
F003F8
F00FF0
F07FE0
F3FF80
FFFE00
FFF800
FFC000
FC0000
F00000
F00000
F00000
F00000
F00000
F00000
F00000
F00000
E00000
ENDCHAR
STARTCHAR germandbls
ENCODING 223
SWIDTH 556 0
DWIDTH 27 0
BBX 25 33 1 0
BITMAP
00FE0000
07FF8000
0FFFC000
0FFFE000
1F03E000
1F01E000
1F01E000
1E03E000
1E0FC000
7E1F8000
FE3F0000
FE7E0000
7EFC0000
1EF80000
1EF00000
1EF80000
1E7F0000
1E7FE000
1E1FF800
1E03FE00
1E007F00
1E001F00
1E000F80
1E000F80
1E000F80
1E000F80
1E000F00
1E001F00
1E003F00
1FFFFE00
1FFFFC00
1FFFF800
0FFFC000
ENDCHAR
STARTCHAR agrave
ENCODING 224
SWIDTH 500 0
DWIDTH 24 0
BBX 20 34 1 0
BITMAP
060000
07C000
0FF000
0FFE00
03FF80
003F80
000380
000000
000000
000000
3FFF00
7FFFC0
7FFFE0
3FFFE0
0001F0
0000F0
0000F0
0000F0
003FF0
03FFF0
0FFFF0
3FF0F0
7F00F0
FC00F0
F800F0
F000F0
F000F0
F000F0
F001F0
F803F0
7E0FF0
3FFFF0
1FFCF0
07F070
ENDCHAR
STARTCHAR aacute
ENCODING 225
SWIDTH 500 0
DWIDTH 24 0
BBX 20 34 1 0
BITMAP
000300
000F80
007F80
01FF80
0FFE00
0FE000
070000
000000
000000
000000
3FFF00
7FFFC0
7FFFE0
3FFFE0
0001F0
0000F0
0000F0
0000F0
003FF0
03FFF0
0FFFF0
3FF0F0
7F00F0
FC00F0
F800F0
F000F0
F000F0
F000F0
F001F0
F803F0
7E0FF0
3FFFF0
1FFCF0
07F070
ENDCHAR
STARTCHAR acircumflex
ENCODING 226
SWIDTH 500 0
DWIDTH 24 0
BBX 20 34 1 0
BITMAP
007800
00FC00
01FC00
03DE00
078F00
0F8780
0F03C0
000000
000000
000000
3FFF00
7FFFC0
7FFFE0
3FFFE0
0001F0
0000F0
0000F0
0000F0
003FF0
03FFF0
0FFFF0
3FF0F0
7F00F0
FC00F0
F800F0
F000F0
F000F0
F000F0
F001F0
F803F0
7E0FF0
3FFFF0
1FFCF0
07F070
ENDCHAR
STARTCHAR atilde
ENCODING 227
SWIDTH 500 0
DWIDTH 24 0
BBX 20 33 1 0
BITMAP
078060
0FF8E0
1FFFC0
1DFFC0
381F80
000000
000000
000000
000000
3FFF00
7FFFC0
7FFFE0
3FFFE0
0001F0
0000F0
0000F0
0000F0
003FF0
03FFF0
0FFFF0
3FF0F0
7F00F0
FC00F0
F800F0
F000F0
F000F0
F000F0
F001F0
F803F0
7E0FF0
3FFFF0
1FFCF0
07F070
ENDCHAR
STARTCHAR adieresis
ENCODING 228
SWIDTH 500 0
DWIDTH 24 0
BBX 20 33 1 0
BITMAP
0E0380
1F03C0
1F07E0
1F07C0
0E03C0
000000
000000
000000
000000
3FFF00
7FFFC0
7FFFE0
3FFFE0
0001F0
0000F0
0000F0
0000F0
003FF0
03FFF0
0FFFF0
3FF0F0
7F00F0
FC00F0
F800F0
F000F0
F000F0
F000F0
F001F0
F803F0
7E0FF0
3FFFF0
1FFCF0
07F070
ENDCHAR
STARTCHAR aring
ENCODING 229
SWIDTH 500 0
DWIDTH 24 0
BBX 20 36 1 0
BITMAP
00F800
01FE00
038E00
030700
030700
030700
038E00
01FE00
00F800
000000
000000
000000
3FFF00
7FFFC0
7FFFE0
3FFFE0
0001F0
0000F0
0000F0
0000F0
003FF0
03FFF0
0FFFF0
3FF0F0
7F00F0
FC00F0
F800F0
F000F0
F000F0
F000F0
F001F0
F803F0
7E0FF0
3FFFF0
1FFCF0
07F070
ENDCHAR
STARTCHAR ae
ENCODING 230
SWIDTH 833 0
DWIDTH 40 0
BBX 37 24 1 0
BITMAP
3FFF00FE00
3FFF87FF80
3FFFCFFFC0
1FFFFFFFE0
0001FE03F0
0001FC00F0
0000F800F0
0000F80078
001FFFFFF8
03FFFFFFF8
0FFFFFFFF8
3FFCF00000
3F00F00000
7C00F00000
F800F00000
F800F80000
F000F80000
F000FC0000
F800FC0000
7C01FF0000
7FFFFFFFE0
3FFFCFFFF8
1FFF87FFF8
07FE01FFF8
ENDCHAR
STARTCHAR ccedilla
ENCODING 231
SWIDTH 500 0
DWIDTH 24 0
BBX 22 33 2 -9
BITMAP
01FFF0
0FFFF0
1FFFF0
3FFFE0
7F0000
7C0000
F80000
F80000
F80000
F00000
F00000
F00000
F80000
F80000
780000
7C0000
7C0000
3E0000
1F8000
0FE000
07FFF8
03FFFC
00FFFC
003FF8
001800
001800
003F00
003FC0
0003C0
0001E0
0183C0
01FFC0
007F00
ENDCHAR
STARTCHAR egrave
ENCODING 232
SWIDTH 556 0
DWIDTH 27 0
BBX 23 33 2 0
BITMAP
03C000
07F000
07FE00
03FF80
003FC0
0007C0
000000
000000
000000
00FF00
03FFC0
0FFFE0
1FFFF0
3F00F8
3E007C
7C003C
78003E
F8001E
FFFFFE
FFFFFE
FFFFFE
F00000
F00000
F80000
F80000
780000
7C0000
3E0000
3F0000
1FFFF8
0FFFFE
03FFFE
00FFFC
ENDCHAR
STARTCHAR eacute
ENCODING 233
SWIDTH 556 0
DWIDTH 27 0
BBX 23 33 2 0
BITMAP
0007C0
001FC0
00FFC0
03FF80
07F800
07C000
000000
000000
000000
00FF00
03FFC0
0FFFE0
1FFFF0
3F00F8
3E007C
7C003C
78003E
F8001E
FFFFFE
FFFFFE
FFFFFE
F00000
F00000
F80000
F80000
780000
7C0000
3E0000
3F0000
1FFFF8
0FFFFE
03FFFE
00FFFC
ENDCHAR
STARTCHAR ecircumflex
ENCODING 234
SWIDTH 556 0
DWIDTH 27 0
BBX 23 34 2 0
BITMAP
003C00
007E00
00FE00
01EF00
03C780
07C3C0
0F81E0
000000
000000
000000
00FF00
03FFC0
0FFFE0
1FFFF0
3F00F8
3E007C
7C003C
78003E
F8001E
FFFFFE
FFFFFE
FFFFFE
F00000
F00000
F80000
F80000
780000
7C0000
3E0000
3F0000
1FFFF8
0FFFFE
03FFFE
00FFFC
ENDCHAR
STARTCHAR edieresis
ENCODING 235
SWIDTH 556 0
DWIDTH 27 0
BBX 23 33 2 0
BITMAP
0701C0
0F83E0
0F83E0
0F83E0
0701E0
000000
000000
000000
000000
00FF00
03FFC0
0FFFE0
1FFFF0
3F00F8
3E007C
7C003C
78003E
F8001E
FFFFFE
FFFFFE
FFFFFE
F00000
F00000
F80000
F80000
780000
7C0000
3E0000
3F0000
1FFFF8
0FFFFE
03FFFE
00FFFC
ENDCHAR
STARTCHAR igrave
ENCODING 236
SWIDTH 222 0
DWIDTH 11 0
BBX 13 34 -1 0
BITMAP
4000
F800
FE00
FFC0
7FF0
07F8
0078
0000
0000
0000
0700
0F00
0F00
0F00
0F00
0F00
0F00
0F00
0F00
0F00
0F00
0F00
0F00
0F00
0F00
0F00
0F00
0F00
0F00
0F00
0F00
0F00
0F00
0700
ENDCHAR
STARTCHAR iacute
ENCODING 237
SWIDTH 222 0
DWIDTH 11 0
BBX 13 33 -1 0
BITMAP
00F0
07F8
1FF8
FFE0
FF00
F000
0000
0000
0000
0700
0F00
0F00
0F00
0F00
0F00
0F00
0F00
0F00
0F00
0F00
0F00
0F00
0F00
0F00
0F00
0F00
0F00
0F00
0F00
0F00
0F00
0F00
0700
ENDCHAR
STARTCHAR icircumflex
ENCODING 238
SWIDTH 222 0
DWIDTH 11 0
BBX 15 34 -2 0
BITMAP
0780
07C0
0FE0
1EF0
3C78
787C
F01E
0000
0000
0000
0380
0780
0780
0780
0780
0780
0780
0780
0780
0780
0780
0780
0780
0780
0780
0780
0780
0780
0780
0780
0780
0780
0780
0380
ENDCHAR
STARTCHAR idieresis
ENCODING 239
SWIDTH 222 0
DWIDTH 11 0
BBX 16 33 -3 0
BITMAP
380E
7C1F
FC1F
7C1F
780E
0000
0000
0000
0000
01C0
03C0
03C0
03C0
03C0
03C0
03C0
03C0
03C0
03C0
03C0
03C0
03C0
03C0
03C0
03C0
03C0
03C0
03C0
03C0
03C0
03C0
03C0
01C0
ENDCHAR
STARTCHAR eth
ENCODING 240
SWIDTH 556 0
DWIDTH 27 0
BBX 23 36 2 0
BITMAP
000040
0C01E0
1FC3E0
1FFFC0
0FFF00
01FE00
00FF00
03FF80
07C7C0
0783E0
0201E0
0001F0
0000F0
03FCF8
0FFF78
1FFFFC
1F83FC
3E00FC
7C007C
78007C
78003E
F8003E
F0003E
F0003E
F0003E
F0003C
F0003C
F8003C
78007C
7C0078
3E00F8
3F01F0
1FEFE0
0FFFC0
07FF80
00FE00
ENDCHAR
STARTCHAR ntilde
ENCODING 241
SWIDTH 556 0
DWIDTH 27 0
BBX 21 33 3 0
BITMAP
078060
0FF0C0
1FFFC0
3DFFC0
303F80
000000
000000
000000
000000
60FE00
F3FF80
F7FFC0
FFFFE0
FF03F0
FE01F0
FC00F0
F800F0
F800F8
F000F8
F000F8
F000F8
F000F8
F000F8
F000F8
F000F8
F000F8
F000F8
F000F8
F000F8
F000F8
F000F8
F000F0
700070
ENDCHAR
STARTCHAR ograve
ENCODING 242
SWIDTH 556 0
DWIDTH 27 0
BBX 23 33 2 0
BITMAP
07C000
07F000
07FE00
03FF80
003FC0
0007C0
000000
000000
000000
00FC00
03FF80
0FFFC0
1FFFE0
3F01F0
3E00F8
7C007C
78007C
F8003C
F0003E
F0001E
F0001E
F0001E
F0001E
F0003E
F8003C
78007C
7C007C
3E00F8
3F01F0
1FFFF0
0FFFC0
03FF80
00FE00
ENDCHAR
STARTCHAR oacute
ENCODING 243
SWIDTH 556 0
DWIDTH 27 0
BBX 23 33 2 0
BITMAP
000780
001FC0
00FFC0
03FF80
07F800
07C000
000000
000000
000000
00FC00
03FF80
0FFFC0
1FFFE0
3F01F0
3E00F8
7C007C
78007C
F8003C
F0003E
F0001E
F0001E
F0001E
F0001E
F0003E
F8003C
78007C
7C007C
3E00F8
3F01F0
1FFFF0
0FFFC0
03FF80
00FE00
ENDCHAR
STARTCHAR ocircumflex
ENCODING 244
SWIDTH 556 0
DWIDTH 27 0
BBX 23 34 2 0
BITMAP
003800
007C00
00FE00
01EF00
03C780
0787C0
0F01E0
000000
000000
000000
00FC00
03FF80
0FFFC0
1FFFE0
3F01F0
3E00F8
7C007C
78007C
F8003C
F0003E
F0001E
F0001E
F0001E
F0001E
F0003E
F8003C
78007C
7C007C
3E00F8
3F01F0
1FFFF0
0FFFC0
03FF80
00FE00
ENDCHAR
STARTCHAR otilde
ENCODING 245
SWIDTH 556 0
DWIDTH 27 0
BBX 23 33 2 0
BITMAP
03C030
07F860
0FFFE0
1EFFE0
181FC0
100000
000000
000000
000000
00FC00
03FF80
0FFFC0
1FFFE0
3F01F0
3E00F8
7C007C
78007C
F8003C
F0003E
F0001E
F0001E
F0001E
F0001E
F0003E
F8003C
78007C
7C007C
3E00F8
3F01F0
1FFFF0
0FFFC0
03FF80
00FE00
ENDCHAR
STARTCHAR odieresis
ENCODING 246
SWIDTH 556 0
DWIDTH 27 0
BBX 23 33 2 0
BITMAP
0701C0
0F83E0
0F83E0
0F83E0
0F01C0
000000
000000
000000
000000
00FC00
03FF80
0FFFC0
1FFFE0
3F01F0
3E00F8
7C007C
78007C
F8003C
F0003E
F0001E
F0001E
F0001E
F0001E
F0003E
F8003C
78007C
7C007C
3E00F8
3F01F0
1FFFF0
0FFFC0
03FF80
00FE00
ENDCHAR
STARTCHAR divide
ENCODING 247
SWIDTH 600 0
DWIDTH 29 0
BBX 25 27 2 -1
BITMAP
001C0000
003E0000
007F0000
007F0000
007F0000
003E0000
001C0000
00000000
00000000
00000000
00000000
00000000
FFFFFF80
FFFFFF80
FFFFFF80
FFFFFF80
00000000
00000000
00000000
00000000
001C0000
003E0000
007F0000
007F0000
007F0000
003E0000
001C0000
ENDCHAR
STARTCHAR oslash
ENCODING 248
SWIDTH 556 0
DWIDTH 27 0
BBX 23 32 2 -4
BITMAP
000070
0000F0
0000E0
0001E0
00FDC0
03FFC0
0FFFC0
1FFFE0
3F07F0
3E07F8
7C0F7C
780E7C
F81E3C
F01C3E
F03C1E
F0381E
F0781E
F0701E
F0F03E
F8E03C
79E07C
7DC07C
3FC0F8
3F81F0
1FFFF0
0FFFC0
0FFF80
0EFE00
1E0000
1C0000
1C0000
180000
ENDCHAR
STARTCHAR ugrave
ENCODING 249
SWIDTH 556 0
DWIDTH 27 0
BBX 21 34 3 0
BITMAP
040000
0F8000
0FE000
0FFC00
07FF00
007F80
000780
000000
000000
000000
700070
F000F0
F000F8
F000F8
F000F8
F000F8
F000F8
F000F8
F000F8
F000F8
F000F8
F000F8
F000F8
F000F8
F000F8
F800F8
F800F8
F801F8
7C03F8
7E07F8
3FFF78
3FFF78
0FFE70
03F870
ENDCHAR
STARTCHAR uacute
ENCODING 250
SWIDTH 556 0
DWIDTH 27 0
BBX 21 33 3 0
BITMAP
000F00
007F80
01FF80
0FFE00
0FF000
0F0000
000000
000000
000000
700070
F000F0
F000F8
F000F8
F000F8
F000F8
F000F8
F000F8
F000F8
F000F8
F000F8
F000F8
F000F8
F000F8
F000F8
F800F8
F800F8
F801F8
7C03F8
7E07F8
3FFF78
3FFF78
0FFE70
03F870
ENDCHAR
STARTCHAR ucircumflex
ENCODING 251
SWIDTH 556 0
DWIDTH 27 0
BBX 21 34 3 0
BITMAP
007000
00F800
01FC00
03DE00
078F00
0F0F80
1E03C0
000000
000000
000000
700070
F000F0
F000F8
F000F8
F000F8
F000F8
F000F8
F000F8
F000F8
F000F8
F000F8
F000F8
F000F8
F000F8
F000F8
F800F8
F800F8
F801F8
7C03F8
7E07F8
3FFF78
3FFF78
0FFE70
03F870
ENDCHAR
STARTCHAR udieresis
ENCODING 252
SWIDTH 556 0
DWIDTH 27 0
BBX 21 33 3 0
BITMAP
0E0380
1F07C0
1F07C0
1F07C0
1E0380
000000
000000
000000
000000
700070
F000F0
F000F8
F000F8
F000F8
F000F8
F000F8
F000F8
F000F8
F000F8
F000F8
F000F8
F000F8
F000F8
F000F8
F800F8
F800F8
F801F8
7C03F8
7E07F8
3FFF78
3FFF78
0FFE70
03F870
ENDCHAR
STARTCHAR yacute
ENCODING 253
SWIDTH 500 0
DWIDTH 24 0
BBX 22 43 1 -9
BITMAP
000100
000F80
003F80
01FF80
07FF00
0FF000
078000
000000
000000
000000
70001C
F0003C
F0003C
F8003C
F8003C
78003C
78007C
7C007C
7C0078
3C00F8
3C00F8
3E00F0
1E01F0
1F01E0
0F01E0
0F83C0
0787C0
07C780
03CF80
03EF00
01FF00
00FE00
00FC00
007C00
00F800
01F000
03F000
03E000
07C000
0FC000
0F8000
0F0000
0E0000
ENDCHAR
STARTCHAR thorn
ENCODING 254
SWIDTH 556 0
DWIDTH 27 0
BBX 22 42 3 -9
BITMAP
600000
F00000
F00000
F00000
F00000
F00000
F00000
F00000
F00000
FFE000
FFFC00
FFFF00
FFFF80
F03FC0
F007E0
F003F0
F001F0
F000F8
F00078
F0007C
F0007C
F0007C
F0007C
F0007C
F0007C
F00078
F000F8
F001F8
F007F0
FFFFE0
FFFFC0
FFFF80
FFFC00
F00000
F00000
F00000
F00000
F00000
F00000
F00000
F00000
600000
ENDCHAR
STARTCHAR ydieresis
ENCODING 255
SWIDTH 500 0
DWIDTH 24 0
BBX 22 42 1 -9
BITMAP
0E01C0
1F03E0
1F03E0
1F03E0
0F03C0
000000
000000
000000
000000
70001C
F0003C
F0003C
F8003C
F8003C
78003C
78007C
7C007C
7C0078
3C00F8
3C00F8
3E00F0
1E01F0
1F01E0
0F01E0
0F83C0
0787C0
07C780
03CF80
03EF00
01FF00
00FE00
00FC00
007C00
00F800
01F000
03F000
03E000
07C000
0FC000
0F8000
0F0000
0E0000
ENDCHAR
STARTCHAR .notdef
ENCODING -1
SWIDTH 500 0
DWIDTH 24 0
BBX 24 33 0 0
BITMAP
FFFFFF
FFFFFF
F0000F
F8001F
DC003B
DC003B
CE0073
C700E3
C700E3
C381C3
C1C383
C1C383
C0E703
C07E03
C07E03
C03C03
C03C03
C03C03
C07E03
C0E703
C0E703
C1C383
C381C3
C381C3
C700E3
CE0073
CE0073
DC003B
F8001F
F8001F
F0000F
FFFFFF
FFFFFF
ENDCHAR
STARTCHAR quoteright
ENCODING -1
SWIDTH 222 0
DWIDTH 11 0
BBX 8 13 1 20
BITMAP
0E
0F
1F
1F
1E
3E
3C
7C
78
78
F0
F0
60
ENDCHAR
STARTCHAR quoteleft
ENCODING -1
SWIDTH 222 0
DWIDTH 11 0
BBX 8 13 1 20
BITMAP
70
F8
F8
78
7C
7C
3C
3E
1E
1E
0F
0F
06
ENDCHAR
STARTCHAR fraction
ENCODING -1
SWIDTH 167 0
DWIDTH 8 0
BBX 24 33 -8 0
BITMAP
000007
000007
00000F
00001E
00003C
00003C
000078
0000F0
0000F0
0001E0
0003C0
0003C0
000780
000F00
001E00
001E00
003C00
007800
007800
00F000
01E000
03C000
03C000
078000
0F0000
0F0000
1E0000
3C0000
3C0000
780000
F00000
E00000
E00000
ENDCHAR
STARTCHAR florin
ENCODING -1
SWIDTH 611 0
DWIDTH 29 0
BBX 28 42 0 -9
BITMAP
00000FF0
00003FF0
00007FF0
0000FFE0
0000F800
0001F000
0001E000
0001E000
0003E000
0003C000
0003C000
0003C000
00FFFF00
01FFFF00
01FFFF00
00FFFF00
00078000
00078000
00078000
00078000
000F8000
000F0000
000F0000
000F0000
000F0000
000F0000
001F0000
001E0000
001E0000
001E0000
001E0000
001E0000
003E0000
003C0000
003C0000
007C0000
00780000
01F80000
7FF00000
FFE00000
FFC00000
7F000000
ENDCHAR
STARTCHAR quotedblleft
ENCODING -1
SWIDTH 389 0
DWIDTH 19 0
BBX 16 13 1 20
BITMAP
7070
F0F0
F8F8
F8F8
7878
7C7C
3C3C
3E3E
1E1E
1E1E
0F0F
0F0F
0606
ENDCHAR
STARTCHAR guilsinglleft
ENCODING -1
SWIDTH 278 0
DWIDTH 13 0
BBX 7 18 3 3
BITMAP
0E
0E
1E
1E
3C
3C
78
F8
F0
F8
78
7C
3C
3C
1E
1E
0E
06
ENDCHAR
STARTCHAR guilsinglright
ENCODING -1
SWIDTH 278 0
DWIDTH 13 0
BBX 7 18 3 3
BITMAP
E0
F0
F0
78
78
3C
3C
1E
1E
1E
3E
3C
7C
78
F0
F0
E0
E0
ENDCHAR
STARTCHAR fi
ENCODING -1
SWIDTH 500 0
DWIDTH 24 0
BBX 21 33 1 0
BITMAP
01FFE0
07FFF0
0FFFF0
0FFFF0
1F00F0
1F00F0
1E0070
1E0000
1E0000
FFFFF0
FFFFF0
FFFFF0
FFFFF8
1E00F8
1E00F8
1E00F8
1E00F8
1E00F8
1E00F8
1E00F8
1E00F8
1E00F8
1E00F8
1E00F8
1E00F8
1E00F8
1E00F8
1E00F8
1E00F8
1E00F8
1E00F8
1E00F0
1C0070
ENDCHAR
STARTCHAR fl
ENCODING -1
SWIDTH 500 0
DWIDTH 24 0
BBX 21 33 1 0
BITMAP
01FFE0
07FFF0
0FFFF0
0FFFF8
1F00F8
1E00F8
1E00F8
1E00F8
1E00F8
FFF8F8
FFFCF8
FFFCF8
7FF8F8
1E00F8
1E00F8
1E00F8
1E00F8
1E00F8
1E00F8
1E00F8
1E00F8
1E00F8
1E00F8
1E00F8
1E00F8
1E00F8
1E00F8
1E00F8
1E00F8
1E00F8
1E00F8
1E00F0
1C0070
ENDCHAR
STARTCHAR endash
ENCODING -1
SWIDTH 500 0
DWIDTH 24 0
BBX 24 3 0 11
BITMAP
FFFFFF
FFFFFF
FFFFFF
ENDCHAR
STARTCHAR dagger
ENCODING -1
SWIDTH 389 0
DWIDTH 19 0
BBX 15 33 2 0
BITMAP
0380
0780
0780
07C0
0780
0780
0780
0780
FFFC
FFFE
FFFE
FFFC
0380
0780
0780
0780
0780
0780
0780
0780
0780
0780
07C0
07C0
07C0
07C0
07C0
07C0
07C0
07C0
07C0
07C0
0380
ENDCHAR
STARTCHAR daggerdbl
ENCODING -1
SWIDTH 389 0
DWIDTH 19 0
BBX 15 33 2 0
BITMAP
0380
0780
0780
07C0
0780
0780
0780
0780
FFFC
FFFE
FFFE
FFFC
0780
0780
0780
0780
0780
0780
0780
0780
0780
FFFC
FFFE
FFFE
FFFC
0780
0780
0780
0780
07C0
0780
0780
0380
ENDCHAR
STARTCHAR bullet
ENCODING -1
SWIDTH 500 0
DWIDTH 24 0
BBX 16 17 4 8
BITMAP
07E0
1FF8
3FFC
7FFE
7FFE
FFFF
FFFF
FFFF
FFFF
FFFF
FFFF
FFFF
7FFE
3FFC
1FF8
0FF0
0100
ENDCHAR
STARTCHAR quotesinglbase
ENCODING -1
SWIDTH 222 0
DWIDTH 11 0
BBX 8 13 1 -6
BITMAP
0E
0F
1F
1F
1E
3E
3C
7C
78
78
F0
F0
60
ENDCHAR
STARTCHAR quotedblbase
ENCODING -1
SWIDTH 389 0
DWIDTH 19 0
BBX 16 13 1 -6
BITMAP
0E0E
1F1F
1F1F
1E1E
3E3E
3C3C
3C3C
7C7C
7878
7878
F0F0
F0F0
6060
ENDCHAR
STARTCHAR quotedblright
ENCODING -1
SWIDTH 389 0
DWIDTH 19 0
BBX 16 13 1 20
BITMAP
0E0E
1F1F
1F1F
1E1E
3E3E
3C3C
3C3C
7C7C
7878
7878
F0F0
F0F0
6060
ENDCHAR
STARTCHAR ellipsis
ENCODING -1
SWIDTH 1000 0
DWIDTH 48 0
BBX 36 5 6 0
BITMAP
F000F000F0
F000F000F0
F000F000F0
F000F000F0
F000E000E0
ENDCHAR
STARTCHAR perthousand
ENCODING -1
SWIDTH 1000 0
DWIDTH 48 0
BBX 48 33 0 0
BITMAP
07C003000000
1FF007000000
3FF80F000000
7EFC0F000000
783C1E000000
F01E1E000000
F01E3C000000
F00E3C000000
F00E38000000
F01E78000000
F01E70000000
781EF0000000
7C7CE0000000
3FFDE0000000
1FF9C0000000
0FE3C0000000
000380000000
000787E003E0
00070FF80FF8
000F1FFC1FFC
000E3FFC3FFE
001E7C1E7C1E
001E781E780F
003C700F780F
003CF00F700F
0078F00F700F
0078700F780F
00F0781E780F
00F0781E7C1E
01E03FFC3F7E
01E01FFC1FFC
01C00FF80FF8
018003E003E0
ENDCHAR
STARTCHAR circumflex
ENCODING -1
SWIDTH 222 0
DWIDTH 11 0
BBX 15 7 -2 27
BITMAP
07C0
0FC0
1FE0
1EF0
3C78
783C
F01E
ENDCHAR
STARTCHAR tilde
ENCODING -1
SWIDTH 222 0
DWIDTH 11 0
BBX 17 6 -3 28
BITMAP
000100
3F0380
7FF700
7FFF00
E1FE00
C07C00
ENDCHAR
STARTCHAR breve
ENCODING -1
SWIDTH 222 0
DWIDTH 11 0
BBX 14 7 -2 27
BITMAP
C004
E00C
601C
787C
3FF8
1FF0
07C0
ENDCHAR
STARTCHAR dotaccent
ENCODING -1
SWIDTH 222 0
DWIDTH 11 0
BBX 5 5 3 28
BITMAP
70
F8
F8
F8
F0
ENDCHAR
STARTCHAR ring
ENCODING -1
SWIDTH 222 0
DWIDTH 11 0
BBX 10 10 0 27
BITMAP
1E00
3F80
73C0
60C0
E0C0
E0C0
60C0
73C0
3F80
1E00
ENDCHAR
STARTCHAR hungarumlaut
ENCODING -1
SWIDTH 222 0
DWIDTH 11 0
BBX 18 11 -3 25
BITMAP
0381C0
07C3C0
0F87C0
0F0F80
1E0F00
3E1F00
7C3E00
787C00
F07800
E0F000
C06000
ENDCHAR
STARTCHAR ogonek
ENCODING -1
SWIDTH 222 0
DWIDTH 11 0
BBX 12 10 -1 -9
BITMAP
0070
0780
1E00
7800
F000
F000
F070
F9E0
FFC0
3E00
ENDCHAR
STARTCHAR caron
ENCODING -1
SWIDTH 222 0
DWIDTH 11 0
BBX 15 7 -2 27
BITMAP
F01E
787C
3C78
1EF0
0FE0
07C0
0780
ENDCHAR
STARTCHAR emdash
ENCODING -1
SWIDTH 1000 0
DWIDTH 48 0
BBX 48 3 0 11
BITMAP
FFFFFFFFFFFF
FFFFFFFFFFFF
FFFFFFFFFFFF
ENDCHAR
STARTCHAR Lslash
ENCODING -1
SWIDTH 444 0
DWIDTH 21 0
BBX 22 33 -1 0
BITMAP
030000
078000
078000
078000
078000
078000
078000
078000
078000
078000
078000
078000
079F00
07FF00
07FC00
1FF000
7F8000
FF8000
F78000
078000
078000
078000
078000
078000
078000
078000
078000
078000
078000
07FFFC
07FFFC
07FFFC
07FFFC
ENDCHAR
STARTCHAR OE
ENCODING -1
SWIDTH 1000 0
DWIDTH 48 0
BBX 45 33 1 0
BITMAP
001FE03FFFF8
007FF87FFFF8
01FFFE7FFFF8
03FFFF7FFFF8
07F03FF80000
0FC00FF80000
1F8007F80000
1F0003F80000
3E0001F80000
3E0001FFFFF0
7C0000FFFFF8
7C0000FFFFF8
7C00007FFFF0
7C0000780000
780000780000
F80000780000
F80000780000
F80000780000
F80000780000
780000780000
7C0000780000
7C0000F80000
7C0000F80000
3E0000F80000
3E0001F80000
3F0003F80000
1F8007F80000
0FC00FF80000
0FF03FF80000
07FFFF7FFFF8
01FFFE7FFFF8
00FFFC7FFFF8
001FE03FFFF8
ENDCHAR
STARTCHAR dotlessi
ENCODING -1
SWIDTH 222 0
DWIDTH 11 0
BBX 4 24 3 0
BITMAP
70
F0
F0
F0
F0
F0
F0
F0
F0
F0
F0
F0
F0
F0
F0
F0
F0
F0
F0
F0
F0
F0
F0
70
ENDCHAR
STARTCHAR lslash
ENCODING -1
SWIDTH 222 0
DWIDTH 11 0
BBX 13 33 -1 0
BITMAP
0700
0F00
0F00
0F00
0F00
0F00
0F00
0F00
0F00
0F00
0F38
0FF8
0FF0
1FE0
7F80
FF00
FF00
4F00
0F00
0F00
0F00
0F00
0F00
0F00
0F00
0F00
0F00
0F00
0F00
0F00
0F00
0F00
0700
ENDCHAR
STARTCHAR oe
ENCODING -1
SWIDTH 944 0
DWIDTH 45 0
BBX 41 24 2 0
BITMAP
00FC001FC000
03FF80FFF000
0FFFC1FFFC00
1FFFE3FFFE00
3F01F7E03F00
3E00FF801F00
7C007F000F80
78003F000780
F8003E000780
F0003FFFFF80
F0001FFFFF80
F0001FFFFF80
F0001E000000
F0001E000000
F0003E000000
F8003E000000
78007F000000
7C007F000000
3E00FF800000
3F01F7C00000
1FFFE3FFFF00
0FFFC1FFFF80
03FF80FFFF80
00FE003FFF80
ENDCHAR
STARTCHAR trademark
ENCODING -1
SWIDTH 990 0
DWIDTH 48 0
BBX 42 20 3 13
BITMAP
FFFF0FC00FC0
FFFF0FC00FC0
FFFF0FC01FC0
03C00FE01FC0
03C00EE03FC0
03C00EE03FC0
03C00EF03BC0
03C00E707BC0
03C00E7873C0
03C00E7873C0
03C00E38F3C0
03C00E3CE3C0
03C00E1DE3C0
03C00E1FE3C0
03C00E1FC3C0
03C00E0FC3C0
03C00E0F83C0
03C00E0F83C0
03C00E0783C0
03C00E0703C0
ENDCHAR
STARTCHAR minus
ENCODING -1
SWIDTH 600 0
DWIDTH 29 0
BBX 25 4 2 10
BITMAP
FFFFFF80
FFFFFF80
FFFFFF80
FFFFFF80
ENDCHAR
STARTCHAR Scaron
ENCODING -1
SWIDTH 611 0
DWIDTH 29 0
BBX 26 42 2 0
BITMAP
0780F000
03C1E000
01E3C000
00F7C000
007F8000
003F0000
001E0000
00000000
00000000
0FFFF800
3FFFF800
7FFFF800
FFFFF800
F8000000
F0000000
F0000000
F0000000
F8000000
FF800000
7FFF8000
3FFFF000
0FFFFC00
00FFFE00
0001FF00
00003F00
00001F80
00000F80
000007C0
000007C0
000007C0
000007C0
000007C0
00000780
00000F80
00000F80
00001F00
00003F00
0000FE00
FFFFFC00
FFFFF800
FFFFE000
FFFF8000
ENDCHAR
STARTCHAR Ydieresis
ENCODING -1
SWIDTH 556 0
DWIDTH 27 0
BBX 24 40 1 0
BITMAP
03C0F0
07C0F8
07C1F8
07C0F0
038070
000000
000000
700007
F0000F
F8000F
F8000F
7C001F
7C001E
3C003E
3E003E
1F007C
1F00F8
0F80F8
0FC1F0
07E3E0
03F7E0
01FFC0
00FF80
007F00
003C00
003C00
003C00
003C00
003C00
003C00
003C00
003C00
003C00
003C00
003C00
003C00
003C00
003C00
003C00
001C00
ENDCHAR
STARTCHAR Zcaron
ENCODING -1
SWIDTH 500 0
DWIDTH 24 0
BBX 21 42 1 0
BITMAP
0F01E0
0783C0
03C780
01EF00
00FF00
007E00
007C00
000000
000000
3FFFF0
3FFFF0
3FFFF8
3FFFF8
000078
0000F8
0000F0
0000F0
0001F0
0001F0
0003E0
0007C0
000FC0
001F80
003F00
007E00
00FC00
01FC00
03F800
07F000
07E000
0FC000
1F8000
3F0000
3E0000
7C0000
7C0000
780000
780000
FFFFF8
7FFFF8
7FFFF8
3FFFF8
ENDCHAR
STARTCHAR scaron
ENCODING -1
SWIDTH 500 0
DWIDTH 24 0
BBX 22 34 1 0
BITMAP
0F03C0
0F87C0
07CF80
03CF00
01FE00
00FC00
007800
000000
000000
000000
07FFE0
1FFFE0
3FFFE0
7FFFE0
780000
780000
7C0000
7FE000
3FFF00
1FFFE0
03FFF0
000FF8
0000F8
000078
00007C
00003C
000078
000078
000078
0001F8
7FFFF0
FFFFE0
FFFFC0
7FFF00
ENDCHAR
STARTCHAR zcaron
ENCODING -1
SWIDTH 444 0
DWIDTH 21 0
BBX 19 34 1 0
BITMAP
1E0780
1F0F80
0F9F00
079E00
03FC00
01F800
00F000
000000
000000
000000
3FFFC0
7FFFE0
7FFFE0
3FFFE0
0001E0
0003C0
0007C0
000F80
003F00
007E00
00FC00
01F800
03F000
07E000
1F8000
3F0000
3E0000
7C0000
F80000
F80000
FFFFE0
FFFFE0
FFFFE0
7FFFE0
ENDCHAR
STARTCHAR Delta
ENCODING -1
SWIDTH 707 0
DWIDTH 34 0
BBX 30 33 2 0
BITMAP
0007C000
000FC000
000FC000
001FE000
001DE000
003CF000
003CF000
0078F800
00787800
00707800
00F03C00
00F03C00
01E03E00
01E01E00
03C01F00
03C00F00
03800F00
07800780
07800780
0F0003C0
0F0003C0
1E0003E0
1E0001E0
1C0001E0
3C0000F0
3C0000F0
78000078
78000078
F000007C
F000003C
FFFFFFFC
FFFFFFFC
FFFFFFFC
ENDCHAR
STARTCHAR Omega
ENCODING -1
SWIDTH 795 0
DWIDTH 38 0
BBX 33 33 3 0
BITMAP
000FF00000
007FFE0000
01FFFF8000
03F81FC000
07E003E000
0F8001F000
1F0000F800
3E00007C00
3C00003C00
7C00003E00
7800001E00
7800001E00
7800001F00
F800000F00
F000000F00
F000000F00
F000000F00
F000000F00
F000000F00
7800000E00
7800001E00
7800001E00
3800001C00
3C00003C00
1C00003800
1E00007800
0F00007000
070000E000
038001C000
01C0038000
FFF00FFF80
FFF00FFF80
FFF00FFF80
ENDCHAR
STARTCHAR pi
ENCODING -1
SWIDTH 621 0
DWIDTH 30 0
BBX 29 24 0 0
BITMAP
1FFFFFF8
FFFFFFF8
7FFFFFF8
61E00F00
01E00F00
01E00F00
01E00F00
03C00F00
03C00F00
03C00F00
03C00F00
03C00F00
03C00F00
03C00F00
03800F00
07800F00
07800F00
07800F00
07800F00
0F000F00
0F000F00
0F000F80
0F000780
1E000780
ENDCHAR
STARTCHAR Euro
ENCODING -1
SWIDTH 611 0
DWIDTH 29 0
BBX 27 33 3 0
BITMAP
001FFF80
007FFFC0
01FFFFC0
03FFFF80
03F80000
07E00000
0FC00000
0F800000
0F000000
FFFFE000
FFFFF000
FFFFF000
1E000000
1E000000
1E000000
1F000000
FFFFF000
FFFFF000
FFFFF000
0F800000
07800000
07C00000
07C00000
03E00000
01F00000
01F80000
00FE0000
007F8000
003FF000
001FFFC0
0007FFE0
0001FFE0
00003FC0
ENDCHAR
STARTCHAR estimated
ENCODING -1
SWIDTH 844 0
DWIDTH 41 0
BBX 37 33 2 0
BITMAP
0003FE0000
003C03C000
00F0007000
01C0001C00
0700000E00
0E00000700
1C00000380
1C000003C0
3C000003E0
7C000003E0
7C000003F0
FC000003F0
FC000003F0
FC000003F8
FC000003F8
FC000003F8
FFFFFFFFF8
FC00000000
FC00000000
FC00000000
FC00000000
FC00000000
7C00000000
7C00000000
3C00000000
1C00000000
1C00000000
0E00000700
0700000E00
01C0001C00
00E0007000
003C03C000
0003FE0000
ENDCHAR
STARTCHAR partialdiff
ENCODING -1
SWIDTH 592 0
DWIDTH 28 0
BBX 24 37 2 0
BITMAP
03FC00
0FFF00
3FFFC0
3E07E0
1801F0
0000F8
000078
00003C
00003C
00001E
00001E
00001E
00000E
00000F
00FC0F
03FF0F
0FFFCF
1F83EF
3E00FF
3C007F
7C003F
78001F
F8001E
F0001E
F0001E
F0001E
F0003E
F0003C
F0003C
780078
7800F8
7C00F0
3E01E0
1F07E0
1FFF80
07FF00
01FC00
ENDCHAR
STARTCHAR product
ENCODING -1
SWIDTH 758 0
DWIDTH 36 0
BBX 34 36 1 -4
BITMAP
FFFFFFFFC0
FFFFFFFFC0
FFFFFFFFC0
03C000F000
03C000F000
03C000F000
03C000F000
03C000F000
03C000F000
03C000F000
03C000F000
03C000F000
03C000F000
03C000F000
03C000F000
03C000F000
03C000F000
03C000F000
03C000F000
03C000F000
03C000F000
03C000F000
03C000F000
03C000F000
03C000F000
03C000F000
03C000F000
03C000F000
03C000F000
03C000F000
03C000F000
03C000F000
03C000F000
03C000F000
03C000F000
03C000F000
ENDCHAR
STARTCHAR summation
ENCODING -1
SWIDTH 601 0
DWIDTH 29 0
BBX 27 37 1 -5
BITMAP
7FFFFFC0
7FFFFFC0
7FFFFFC0
3E000000
1E000000
1F000000
0F800000
07C00000
03E00000
01F00000
00F00000
00F80000
007C0000
003E0000
001F0000
000F8000
0007C000
0007C000
0003C000
00078000
000F0000
001E0000
003C0000
007C0000
00F80000
00F00000
01E00000
03C00000
07800000
0F000000
1E000000
3E000000
7C000000
7FFFFFE0
FFFFFFE0
FFFFFFE0
FFFFFFE0
ENDCHAR
STARTCHAR uni2219
ENCODING -1
SWIDTH 305 0
DWIDTH 15 0
BBX 5 5 5 10
BITMAP
70
F8
F8
F8
F0
ENDCHAR
STARTCHAR radical
ENCODING -1
SWIDTH 612 0
DWIDTH 29 0
BBX 27 45 2 -7
BITMAP
000000E0
000000E0
000000E0
000000E0
000001C0
000001C0
000001C0
000001C0
00000380
00000380
00000380
00000380
00000700
00000700
00000700
00000700
00000E00
00000E00
00000E00
00000E00
02001C00
1E001C00
FF001C00
FF001C00
C7003800
07803800
07803800
03C03800
03C07000
01C07000
01E07000
01E06000
00E0E000
00F0E000
0070E000
0078C000
0079C000
0039C000
003DC000
003D8000
001F8000
001F8000
000F8000
000F0000
000F0000
ENDCHAR
STARTCHAR infinity
ENCODING -1
SWIDTH 810 0
DWIDTH 39 0
BBX 33 15 3 6
BITMAP
07C001F800
1FF007FE00
3C780F1F00
701C1C0700
E00E380380
E007700380
C003E00180
C001C00180
C001C00180
C003E00180
E007780380
E01E3C0700
783C1E0F00
3FF007FE00
1FE003F800
ENDCHAR
STARTCHAR integral
ENCODING -1
SWIDTH 373 0
DWIDTH 18 0
BBX 16 48 1 -8
BITMAP
000E
007F
00FF
00F1
01E0
01C0
03C0
03C0
03C0
0380
0380
0380
0380
0380
0380
0380
0380
0380
0380
03C0
03C0
03C0
03C0
03C0
03C0
03C0
03C0
03C0
03C0
01C0
01C0
01C0
01C0
01C0
01C0
01C0
01C0
01C0
01C0
03C0
03C0
03C0
0380
0780
0F00
FF00
FE00
7800
ENDCHAR
STARTCHAR approxequal
ENCODING -1
SWIDTH 605 0
DWIDTH 29 0
BBX 25 14 2 6
BITMAP
0FE00300
3FF80300
783E0F00
600FFE00
6003F800
00000000
00000000
00000000
07C00000
1FF00380
3EFC0700
701F9E00
E007FC00
4001F000
ENDCHAR
STARTCHAR notequal
ENCODING -1
SWIDTH 605 0
DWIDTH 29 0
BBX 23 24 3 1
BITMAP
000180
000180
000380
000300
000700
000600
FFFFFE
FFFFFE
000C00
001C00
001800
003800
003000
007000
006000
00E000
FFFFFE
FFFFFE
018000
018000
038000
030000
070000
020000
ENDCHAR
STARTCHAR lessequal
ENCODING -1
SWIDTH 605 0
DWIDTH 29 0
BBX 23 29 3 0
BITMAP
000002
00000E
00003E
0000FC
0003E0
001F80
007E00
01F800
07E000
1F0000
7C0000
F00000
E00000
F80000
3E0000
0FC000
03F000
00FC00
003F00
000FC0
0001F8
00007E
00001E
000006
000000
000000
000000
FFFFFE
FFFFFE
ENDCHAR
STARTCHAR greaterequal
ENCODING -1
SWIDTH 605 0
DWIDTH 29 0
BBX 23 29 3 0
BITMAP
800000
E00000
F80000
3F0000
0FC000
03F000
00FC00
003F00
000FC0
0001F0
00007C
00001E
00000E
00003E
0000F8
0003E0
001F80
007E00
01F800
07E000
1F8000
FE0000
F00000
C00000
000000
000000
000000
FFFFFE
FFFFFE
ENDCHAR
STARTCHAR lozenge
ENCODING -1
SWIDTH 613 0
DWIDTH 29 0
BBX 24 37 3 -2
BITMAP
003C00
007C00
007E00
00EE00
00EF00
01C700
03C780
038380
0783C0
0701E0
0F00E0
0E00F0
1E0070
1C0078
380038
78003C
70001E
F0001E
E0000F
F0000E
70001E
78003C
3C0038
1C0078
1E0070
0E00F0
0F00E0
0701E0
0781C0
038380
03C780
01E700
00EF00
00EE00
007E00
007C00
003800
ENDCHAR
STARTCHAR uni02C9
ENCODING -1
SWIDTH 222 0
DWIDTH 11 0
BBX 13 3 -1 29
BITMAP
FFF8
FFF8
FFF8
ENDCHAR
STARTCHAR uni03A9
ENCODING -1
SWIDTH 795 0
DWIDTH 38 0
BBX 33 33 3 0
BITMAP
000FF00000
007FFE0000
01FFFF8000
03F81FC000
07E003E000
0F8001F000
1F0000F800
3E00007C00
3C00003C00
7C00003E00
7800001E00
7800001E00
7800001F00
F800000F00
F000000F00
F000000F00
F000000F00
F000000F00
F000000F00
7800000E00
7800001E00
7800001E00
3800001C00
3C00003C00
1C00003800
1E00007800
0F00007000
070000E000
038001C000
01C0038000
FFF00FFF80
FFF00FFF80
FFF00FFF80
ENDCHAR
STARTCHAR afii61289
ENCODING -1
SWIDTH 528 0
DWIDTH 25 0
BBX 22 36 2 0
BITMAP
007C00
01FF00
03FF80
07C380
0781C0
0F01C0
0F01C0
0F01C0
0E01C0
0E01C0
0E01C0
0E01C0
0E0380
0E0380
0E0700
0E0F00
0E0E00
0E1C00
0E3C00
0E7800
0EF000
0FE000
0FC000
0F8000
1F0000
3E0000
FE0000
EE0000
CF0008
0F001C
0F003C
078078
07E1F0
03FFE0
01FFC0
007F00
ENDCHAR
STARTCHAR uni03BC
ENCODING -1
SWIDTH 556 0
DWIDTH 27 0
BBX 21 33 3 -9
BITMAP
700070
F000F0
F000F8
F000F8
F000F8
F000F8
F000F8
F000F8
F000F8
F000F8
F000F8
F000F8
F000F8
F000F8
F000F8
F800F8
F800F8
F801F8
FC03F8
FE07F8
FFFF78
FFFF78
FFFE70
F3F870
F00000
F00000
F00000
F00000
F00000
F00000
F00000
F00000
700000
ENDCHAR
STARTCHAR uni2215
ENCODING -1
SWIDTH 167 0
DWIDTH 8 0
BBX 24 33 -8 0
BITMAP
000007
000007
00000F
00001E
00003C
00003C
000078
0000F0
0000F0
0001E0
0003C0
0003C0
000780
000F00
001E00
001E00
003C00
007800
007800
00F000
01E000
03C000
03C000
078000
0F0000
0F0000
1E0000
3C0000
3C0000
780000
F00000
E00000
E00000
ENDCHAR
ENDFONT
